<svg xmlns="http://www.w3.org/2000/svg" version="1.1" fill-rule="evenodd" clip-rule="evenodd" height="1024" width="1024" viewBox="0 0 1024 1024">
<path d="M4.12402005 512a508.25554034 507.87597995 90 1 0 1015.7519599 0 508.25554034 507.87597995 90 1 0-1015.7519599 0Z" fill="#B23AEE"/>
<path d="M528.40375296 837.28307997l239.25681152-239.67130056s21.63958784-18.38072605 21.63725995-44.7310518V405.3738587l-29.1236773 16.64359765v79.4747813s1.60206962 27.38654777-32.45821724 58.87840029c-31.20660025 30.58020921-238.08436679 237.79911453-238.0843668 237.79911452l38.77218987 39.11332751z m67.56404224-440.94647866s47.62898205-206.59484217 142.30363363-209.53468814c93.58021518-2.90375225 113.62704725 68.53972082 111.23791418 113.41514525-2.84670179 53.47490702-55.63234645 93.59069298-89.33635983 99.83247929 0-26.90802347 0.15135858-37.83493177 0.15135858-37.83493177s55.12820622-14.76791865 55.34127218-63.24567154c0.16183751-37.46934329-20.59754382-86.12290446-77.39418511-79.8950912-67.03778019 7.35485155-114.84373561 195.98578574-114.8437356 195.98578688l-9.98732232 9.98732231-17.47723377-28.71035108h0.00465806z m98.81255595-107.05576618h26.27813944v204.7214922c0.63337699 17.39922546-19.96998883 38.69418155-19.96998883 38.69418154L396.50542365 834.78683193 174.30669881 610.09185792S445.18692864 340.46208114 475.14656882 310.50127701c21.22044189-21.22044189 34.94980835-21.22044189 34.94980835-21.22044188h158.886689l-36.35278393 91.95485866 3.89456669 17.8137145c1.52522638 6.96364829 0.95588579 18.91746589 0.95588579 18.91746588-3.70478649 15.3267803-17.50284743 26.71475029-33.96947171 26.71475029-19.30517618 0-35.78693746-16.48292523-35.78693746-35.78693745 0-9.86041458 10.95950905-30.23907157 27.73234346-33.62367602l10.27373966-33.64929195c-44.94178873 9.15368733-68.79819435 37.92341789-68.79819434 68.10660409 0 37.07581213 30.05744128 67.13325227 67.13441735 67.13325226s67.13325227-30.05744128 67.13325227-67.13325226c-0.83247104-13.17865586-2.07943111-15.67490389-6.50491677-29.2796928-3.6209573-11.98525326 18.0419163-63.7870683 18.04191631-63.7870683l12.04346766-27.3807269z" fill="#FFFFFF"/>
</svg>
