<svg xmlns="http://www.w3.org/2000/svg" version="1.1" fill-rule="evenodd" clip-rule="evenodd" height="1024" width="1024" viewBox="0 0 1024 1024">
<path d="M512 512m-509.26933333 0a509.26933333 509.26933333 0 1 0 1018.53866666 0 509.26933333 509.26933333 0 1 0-1018.53866666 0Z" fill="#1e9969"/>
<path d="M307.2 220.04622222c-35.04355555 0-64.62577778 29.696-64.62577778 64.62577778v148.36622222c0 35.04355555 21.61777778 83.62666667 45.85244445 107.86133333l253.38311111 253.38311112c24.23466667 24.23466667 64.62577778 24.23466667 88.97422222 0l186.02666667-186.02666667c24.23466667-24.23466667 24.23466667-64.62577778 0-88.97422222L563.31377778 265.89866667c-24.23466667-24.23466667-72.81777778-45.85244445-107.86133333-45.85244445H307.2z m83.51288889 212.992c-35.04355555 0-64.62577778-29.696-64.62577778-64.62577777 0-35.04355555 29.696-64.62577778 64.62577778-64.62577778 35.04355555 0 64.62577778 29.696 64.62577778 64.62577778 0.11377778 34.92977778-29.58222222 64.62577778-64.62577778 64.62577777z" fill="#FFFFFF"/>
</svg>
