<svg xmlns="http://www.w3.org/2000/svg" version="1.1" fill-rule="evenodd" clip-rule="evenodd" height="1024" width="1024" viewBox="0 0 1024 1024">
<path d="M512 512m-499.2 0a499.2 499.2 0 1 0 998.4 0 499.2 499.2 0 1 0-998.4 0Z" fill="#9266f9"/>
<path d="M753.536 489.6l46.592-46.592c25.472-25.472 25.472-67.584 0-93.056l-133.12-133.12c-25.472-25.472-67.584-25.472-93.056 0L527.36 263.424l226.176 226.176zM561.28 347.136l167.168 167.168-230.272 230.272c-54.656 11.776-66.432-14.976-59.136-59.136-55.424-7.68-96.768-32.384-106.496-95.488l155.392-150.528-14.208-14.208L314.496 579.84c-40.064 3.2-48.512-22.656-42.496-61.568L502.272 288l59.008 59.136zM232.704 657.536L204.8 779.776l45.312 45.312 122.24-27.904-139.648-139.648z m0 0" fill="#FFFFFF"/>
</svg>
