<svg xmlns="http://www.w3.org/2000/svg" version="1.1" fill-rule="evenodd" clip-rule="evenodd" height="1024" width="1024" viewBox="0 0 1024 1024">
<path d="M290.08782222 947.51099221c-42.71976334 0-81.55591111-27.18530333-97.09037-66.02145109-19.41807445-54.37060779-34.95253333-112.62483001-46.60337777-174.76266667v-11.65084443c-3.88361443-27.18530333-7.76723001-54.37060779-11.65084444-85.43952669v-11.65084445c-3.88361443-31.0689189-3.88361443-62.13783666-3.88361558-89.32313998 0-27.18530333 0-54.37060779 3.88361558-89.32314112v-11.65084445c3.88361443-27.18530333 7.76723001-58.25422222 11.65084444-85.43952554v-11.65084444c11.65084445-58.25422222 27.18530333-116.50844445 46.60337777-170.87905224 15.53445888-46.60337778 66.02145223-77.67229667 120.39205888-66.02145223h3.88361445c11.65084445 0 19.41807445 3.88361443 31.06891889 7.76723002 7.76723001 0 11.65084445 3.88361443 15.53445888 3.88361443h3.88361557c11.65084445 3.88361443 19.41807445 3.88361443 31.06891776 7.76723 7.76723001 0 15.53445888 3.88361443 19.41807445 7.76723002 11.65084445 3.88361443 19.41807445 7.76723001 31.06891891 7.76722886 7.76723001 3.88361443 15.53445888 3.88361443 23.30168888 7.76723002 11.65084445 3.88361443 19.41807445 7.76723001 31.06891776 11.65084444 7.76723001 3.88361443 15.53445888 3.88361443 19.41807445 7.76723001 11.65084445 0 23.30168889 3.88361443 34.95253334 11.65084444l3.88361444 3.88361444c3.88361443 3.88361443 11.65084445 3.88361443 15.53446001 7.76723001 11.65084445 3.88361443 23.30168889 11.65084445 34.95253333 15.53445888l3.88361445 3.88361443c3.88361443 0 7.76723001 3.88361443 11.65084443 3.88361557 15.53445888 7.76723001 31.0689189 15.53445888 50.48699222 27.18530333 23.30168889 11.65084445 50.48699221 27.18530333 77.67229668 46.60337778h7.76723001c23.30168889 15.53445888 46.60337778 34.95253333 69.90506666 50.48699222l7.76722888 7.76723c46.60337778 38.83614777 93.20675555 81.55591111 132.04290446 128.15928889 34.95253333 38.83614777 34.95253333 93.20675555 0 132.04290332-85.43952555 97.09036999-186.41351111 178.6462811-299.03834112 240.78411891-112.62483001 62.13783666-236.90050333 108.74121443-365.05979222 128.15928888-3.88361443 0-11.65084445 3.88361443-19.41807445 3.88361443z"/>
</svg>
