<svg xmlns="http://www.w3.org/2000/svg" version="1.1" fill-rule="evenodd" clip-rule="evenodd" height="1024" width="1024" viewBox="0 0 1024 1024">
<path d="M172.032 168.532L512 93.092l339.968 75.44c18.926 4.2 32.396 20.962 32.396 40.324v412.612c0 82.88-41.49 160.274-110.55 206.244L512 930.91l-261.814-103.198c-69.048-45.962-110.53-123.338-110.55-206.202V208.856c0-19.36 13.47-36.122 32.396-40.324z" fill="#06D387"/>
<path d="M512 279.272c102.828 0 186.18 83.354 186.18 186.182 0 102.828-83.352 186.182-186.18 186.182s-186.18-83.354-186.18-186.18c0-102.83 83.352-186.184 186.18-186.184z m0 93.092a93.28 93.28 0 0 0-27.424 4.096 46.546 46.546 0 1 1-61.552 61.57c-11.842 38.414 2.31 80.09 35.096 103.35 32.786 23.26 76.8 22.846 109.142-1.024 32.344-23.87 45.712-65.806 33.15-103.99-12.56-38.186-48.214-63.996-88.412-64.002z" fill="#FFFFFF"/>
</svg>
