<svg xmlns="http://www.w3.org/2000/svg" version="1.1" fill-rule="evenodd" clip-rule="evenodd" height="1024" width="1024" viewBox="0 0 1024 1024">
<path d="M408.405 174.933l32.285 90.411 284.26 0.683a71.111 71.111 0 0 1 70.94 71.11v322.916a71.111 71.111 0 0 1-71.111 71.111H195.356a71.111 71.111 0 0 1-71.11-71.11v-413.37a71.111 71.111 0 0 1 70.897-71.11l213.262-0.64z m-58.069 82.646l-143.588 0.44v390.657h506.653V348.473l-330.894-0.782-32.171-90.112z"/>
<path d="M921.088 381.582v355.13A112.356 112.356 0 0 1 812.231 849.01l-3.499 0.057H285.696v-82.49h523.036a29.867 29.867 0 0 0 29.796-27.733l0.071-2.133V381.582h82.489z" fill="#FF7000"/>
</svg>
