<svg xmlns="http://www.w3.org/2000/svg" version="1.1" fill-rule="evenodd" clip-rule="evenodd" height="1024" width="1024" viewBox="0 0 1024 1024">
<path d="M427.886 109.714h168.228c185.82 0 336.458 151.14 336.458 337.582S781.934 784.88 596.114 784.88v147.692C385.828 848.176 91.428 721.58 91.428 447.296c0-186.44 150.638-337.58 336.458-337.58z" fill="#FE544A"/>
<path d="M649.578 503.508c23.28-23.096 32.372-56.76 23.852-88.312-8.522-31.552-33.362-56.196-65.164-64.65-31.804-8.454-65.736 0.566-89.016 23.664L512 381.4l-7.25-7.192c-23.28-23.098-57.212-32.12-89.016-23.664-31.8 8.454-56.64 33.1-65.164 64.65-8.52 31.55 0.572 65.216 23.852 88.312l111.82 110.94c14.26 14.144 37.258 14.144 51.516 0l111.82-110.94z" fill="#FFFFFF"/>
</svg>
