<svg xmlns="http://www.w3.org/2000/svg" version="1.1" fill-rule="evenodd" clip-rule="evenodd" height="1024" width="1024" viewBox="0 0 1024 1024">
<path d="M90.29333333 381.12c7.57333333 4.48 13.97333333 10.77333333 21.12 16.10666667 10.13333333 7.57333333 20.37333333 14.93333333 30.29333333 22.29333333 15.25333333-33.6 29.76-65.70666667 45.01333333-99.09333333-23.57333333-4.16-47.68-8.74666667-72-12.26666667-3.2-0.42666667-8.74666667 3.94666667-10.56 7.46666667-7.36 14.18666667-13.65333333 28.8-20.26666667 43.30666666-4.16 9.17333333-3.30666667 16.42666667 6.40000001 22.18666667zM214.88 277.12c28.16-24.32 55.14666667-47.57333333 83.09333333-71.78666667-20.05333333-13.86666667-40.32-28.26666667-61.22666667-41.81333333-2.77333333-1.81333333-10.02666667-0.53333333-13.01333333 1.92-13.97333333 11.41333333-27.52 23.57333333-40.64 36.05333333-2.24 2.13333333-3.41333333 7.78666667-2.13333334 10.45333334 10.88 21.76 22.4 43.2 33.92000001 65.17333333zM347.89333332 181.22666667c30.82666667-8.96 61.65333333-18.02666667 92.58666668-26.77333334 7.89333333-2.24 6.82666667-5.86666667 3.62666666-11.30666666-10.66666667-18.24-20.58666667-36.90666667-31.99999999-54.61333334-2.34666667-3.73333333-10.13333333-7.04-14.4-6.08-16.64 3.73333333-32.96 8.96-49.17333334 14.29333334-2.98666667 0.96-6.72 5.44-6.82666666 8.32-0.53333333 24.96-0.32 50.02666667-0.32000001 75.09333333 5.01333333 0.85333333 5.86666667 1.28 6.50666666 1.06666667zM131.03999999 473.06666667c-3.09333333-0.64-4.37333333-1.28-5.43999999-0.96-20.8 5.33333333-41.6 10.56-62.18666667 16.74666666-3.09333333 0.96-6.50666667 7.04-6.61333333 10.77333334-0.32 18.45333333 0 36.90666667 1.27999999 55.25333333 0.32 3.84 5.01333333 9.6 8.64 10.56 21.01333333 5.54666667 42.45333333 9.92 64.21333333 14.82666667V473.06666667zM610.93333332 152.10666667c-1.06666667-14.72-1.38666667-29.54666667-3.84-43.94666667-5.33333333-32 2.66666667-27.2-30.82666665-32.85333333-3.94666667-0.64-7.89333333-1.38666667-11.84-2.02666667-28.16-4.26666667-28.37333333-4.26666667-39.89333335 21.33333333-7.78666667 17.28-14.61333333 34.88-21.75999999 51.94666667 36.58666667 5.22666667 71.68 10.13333333 108.26666666 15.36-0.10666667-2.98666667 0.10666667-6.50666667-0.10666667-9.81333333zM777.22666666 172.8c0.85333333-2.56-2.02666667-7.78666667-4.69333333-9.70666667-14.29333333-10.45333333-28.8-20.58666667-43.73333333-29.86666666-3.2-1.92-10.24-1.92-12.90666667 0.32-19.2 16.42666667-37.65333333 33.6-56.10666666 50.24 31.14666667 21.22666667 60.69333333 41.49333333 91.30666666 62.4 8.85333333-24.21333333 17.92-48.64 26.13333333-73.38666667zM523.67999999 886.18666667c8.64 18.56 17.28 37.86666667 26.88 56.53333333 1.6 3.09333333 8 5.97333333 11.62666667 5.44 19.09333333-3.09333333 38.18666667-6.72 56.96000001-11.52 3.84-0.96 8.32-7.46666667 8.85333333-11.94666667 1.70666667-13.44 1.81333333-27.09333333 2.34666666-40.74666666 0.21333333-6.93333333 0-13.86666667 0-20.48-36.48 7.78666667-70.72 15.04-106.66666667 22.72zM785.33333333 818.02666667c-5.97333333-14.4-11.94666667-28.8-17.81333334-42.98666667-30.50666667 23.36-59.41333333 45.54666667-89.06666666 68.26666667 17.49333333 14.61333333 33.70666667 28.69333333 50.77333333 41.81333333 2.77333333 2.13333333 10.24 1.38666667 13.76000001-0.85333333 11.73333333-7.25333333 22.82666667-15.57333333 33.81333333-23.89333334 19.30666667-14.4 19.2-14.50666667 10.24-36.58666666-0.74666667-1.70666667-0.96-3.84-1.70666667-5.76zM563.25333333 765.01333333c-60.69333333-1.92-117.22666667-19.09333333-165.22666667-56.53333333-76.48-59.73333333-104.42666667-141.44-90.77333333-235.2 11.84-81.81333333 60.8-141.12 133.97333333-176.96 58.66666667-28.8 121.81333333-34.34666667 184.21333333-10.56 48.64 18.56 75.2 56.64 55.89333334 113.6-12.26666667 36.05333333-37.97333333 61.33333333-69.01333333 81.49333333-36.48 23.78666667-75.52 40-120.21333334 36.90666667-43.52-3.09333333-63.36-35.30666667-46.71999999-75.73333333 3.2-7.78666667 7.89333333-14.93333333 11.94666665-22.29333334-22.50666667 20.8-40.85333333 44.8-46.93333333 76.05333334-5.01333333 26.34666667 9.92 53.33333333 34.34666668 62.61333333 23.36 8.96 47.57333333 12.26666667 72.31999999 9.28 80.21333333-9.70666667 149.54666667-42.66666667 207.57333334-98.98666667 64.10666667-62.18666667 62.82666667-162.34666667-4.48-218.34666666-58.66666667-48.74666667-126.72-76.37333333-203.52-78.29333334-86.82666667-2.24-166.61333333 19.73333333-235.41333333 74.88-68.26666667 54.93333333-111.46666667 125.65333333-126.50666667 212.05333334-10.56 60.58666667-4.90666667 120.32 16.96 178.45333333 27.73333333 73.70666667 72.53333333 133.33333333 139.62666667 175.25333333 93.01333333 58.13333333 192.74666667 69.22666667 296.74666666 38.72 92.8-27.2 157.12-89.92 203.62666666-172.90666666 1.49333333-2.66666667 1.92-5.97333333 2.88-8.96-14.08 9.70666667-25.49333333 21.22666667-38.29333333 30.72-63.25333333 46.72-134.82666667 67.2-213.01333333 64.74666666zM462.77333333 883.09333333c-15.46666667-1.81333333-30.93333333-4.26666667-46.08-7.68-16.21333333-3.62666667-32.10666667-8.74666667-50.45333334-13.76 0 22.82666667-0.21333333 43.84 0.32000001 64.85333334 0.10666667 2.77333333 3.73333333 7.25333333 6.61333333 8 19.30666667 5.12 38.72 9.70666667 58.23999999 13.54666666 3.2 0.64 9.06666667-1.70666667 10.66666667-4.48 9.6-16.10666667 18.24-32.64 27.20000001-49.06666666 3.84-7.14666667 2.34666667-10.34666667-6.50666667-11.41333334zM199.41333333 829.44c-1.17333333 2.66666667 0.74666667 8.42666667 3.09333334 10.45333333 15.25333333 13.01333333 31.04 25.6 46.93333333 37.86666667 2.45333333 1.92 7.78666667 3.2 9.70666667 1.81333333 18.45333333-13.22666667 36.37333333-26.98666667 54.39999999-40.53333333-29.33333333-23.78666667-56.96-46.18666667-86.61333333-70.18666667-9.28 20.16-18.77333333 40.21333333-27.52 60.58666667zM93.17333333 675.52c-2.24 2.02666667-2.98666667 8.53333333-1.60000001 11.52 8.10666667 17.17333333 16.85333333 34.13333333 26.13333334 50.77333333 1.70666667 3.09333333 7.04 6.72 10.02666667 6.18666667 22.08-3.94666667 44.05333333-8.85333333 65.17333334-13.22666667L143.73333333 632.74666667c-16.96 14.18666667-34.02666667 28.16-50.56 42.77333333z" fill="#ED4201"/>
<path d="M975.94666666 338.34666667c-15.46666667-35.94666667-46.61333333-52.05333333-80.42666666-62.61333334-21.22666667-6.61333333-43.30666667-9.49333333-65.60000001-10.13333333-10.98666667-0.32-21.97333333-0.21333333-33.06666666 0.32-9.81333333 0.42666667-19.84 1.49333333-29.76 3.94666667 5.33333333 1.28 42.98666667 11.73333333 59.41333334 20.26666666 1.17333333 0.64 2.24 1.17333333 3.41333332 1.81333334 21.65333333 12.26666667 34.98666667 30.82666667 35.84000001 57.28 1.06666667 33.92-13.97333333 61.76-33.81333334 87.46666666-0.64 0.85333333-1.38666667 1.70666667-2.02666667 2.45333334-19.73333333 24.96-43.2 45.97333333-68.90666666 64.74666666-49.38666667 35.94666667-103.68 61.76-162.34666667 77.22666667-44.48 11.73333333-89.81333333 15.14666667-135.57333334 5.33333333-48.32-10.34666667-81.6-52.69333333-61.97333332-104.53333333 3.30666667-8.74666667 6.61333333-17.6 9.92-26.34666667-16.32 20.90666667-28.58666667 42.88-31.57333333 69.86666667-3.84 35.73333333 11.09333333 62.50666667 38.18666666 82.45333333 33.81333333 24.96 74.34666667 31.14666667 114.88 32.53333334 26.24 0.85333333 52.8-3.62666667 79.04-6.29333334 45.65333333-4.69333333 89.06666667-18.13333333 131.2-35.30666666 30.08-12.26666667 59.41333333-26.13333333 87.14666666-42.66666667 17.70666667-10.56 34.66666667-22.18666667 50.88-35.30666667 36.26666667-29.54666667 70.72-61.01333333 89.70666668-105.17333333 10.77333333-24.96 17.06666667-50.34666667 5.43999999-77.33333333z" fill="#035DB6"/>
</svg>
