<svg xmlns="http://www.w3.org/2000/svg" version="1.1" fill-rule="evenodd" clip-rule="evenodd" height="1024" width="1024" viewBox="0 0 1024 1024">
<path d="M817.28 402.730667l244.309333 360.021333A85.333333 85.333333 0 0 1 990.976 896H502.357333a85.333333 85.333333 0 0 1-70.613333-133.248L676.053333 402.730667a85.333333 85.333333 0 0 1 141.226667 0z" fill="#757CFF"/>
<path d="M475.946667 146.730667l244.309333 360.021333A85.333333 85.333333 0 0 1 649.642667 640H161.024a85.333333 85.333333 0 0 1-70.613333-133.248L334.72 146.730667a85.333333 85.333333 0 0 1 141.226667 0z" fill="#FFF191"/>
<path d="M662.848 422.186667l57.386667 84.565333A85.333333 85.333333 0 0 1 649.642667 640h-134.570667l147.797333-217.813333z" fill="#3842FF"/>
</svg>
