<svg xmlns="http://www.w3.org/2000/svg" version="1.1" fill-rule="evenodd" clip-rule="evenodd" height="1024" width="1024" viewBox="0 0 1024 1024">
<path d="M511.87 33.99c-265.1 0-480 214.9-480 480s214.9 480 480 480 480-214.9 480-480-214.91-480-480-480z m240.39 496.09c-36.02 26.35-100.84 74.68-124.28 98.12-23.27 23.27-71.04 87.27-97.51 123.45-9.17 12.53-27.86 12.42-36.68-0.21-25.84-36.99-72.94-102.93-96.42-126.4-22.83-22.83-87.07-68.34-123.33-93.43-12.57-8.7-12.88-27.2-0.61-36.5 35.58-26.98 98.95-75.86 122.27-99.18 23.46-23.46 72.77-87.42 99.65-122.89 9.17-12.1 27.34-12 36.21 0.2 25.13 34.58 70.47 95.7 92.94 118.16 24.08 24.08 91.39 75.07 128.1 102.4 12.12 9.03 11.96 27.28-0.34 36.28z"/>
</svg>
