<svg xmlns="http://www.w3.org/2000/svg" version="1.1" fill-rule="evenodd" clip-rule="evenodd" height="1024" width="1024" viewBox="0 0 1024 1024">
<path d="M883.626667 145.493333l-5.12-5.12a44.8 44.8 0 0 0-30.293334-12.373333h-339.2a85.333333 85.333333 0 0 0-60.586666 25.173333l-308.053334 308.053334a42.666667 42.666667 0 0 0 0 60.16l362.24 362.24a42.666667 42.666667 0 0 0 60.16 0l308.053334-308.053334a85.333333 85.333333 0 0 0 25.173333-60.586666V175.786667a44.8 44.8 0 0 0-12.373333-30.293334zM682.666667 426.666667a85.333333 85.333333 0 1 1 85.333333-85.333334 85.333333 85.333333 0 0 1-85.333333 85.333334z"/>
</svg>
