<svg xmlns="http://www.w3.org/2000/svg" version="1.1" fill-rule="evenodd" clip-rule="evenodd" height="1024" width="1024" viewBox="0 0 1024 1024">
<path d="M883.626667 158.72l-18.346667-18.346667a42.666667 42.666667 0 0 0-37.973333-12.373333l-234.666667 42.666667a165.973333 165.973333 0 0 0-100.693333 60.16L399.786667 349.44a128 128 0 0 0-147.626667 46.506667l-120.32 170.666666a21.333333 21.333333 0 0 0 5.12 29.44l17.493333 12.373334a128 128 0 0 0 178.346667-31.573334l26.88-37.973333 124.16 124.16-37.973333 26.88a128 128 0 0 0-31.573334 178.346667l12.373334 17.493333a21.333333 21.333333 0 0 0 29.44 5.12l170.666666-120.32a128 128 0 0 0 46.506667-147.626667l117.333333-92.16A165.973333 165.973333 0 0 0 853.333333 431.36l42.666667-234.666667a42.666667 42.666667 0 0 0-12.373333-37.973333z m-177.066667 249.173333a64 64 0 1 1 0-90.453333 63.573333 63.573333 0 0 1 0 90.453333z m-372.906667 312.32a21.333333 21.333333 0 0 1 0 30.293334l-139.093333 139.093333a21.333333 21.333333 0 0 1-30.293333 0l-29.866667-29.866667a21.333333 21.333333 0 0 1 0-30.293333l139.093333-139.093333a21.333333 21.333333 0 0 1 30.293334 0z"/>
</svg>
