<svg xmlns="http://www.w3.org/2000/svg" version="1.1" fill-rule="evenodd" clip-rule="evenodd" height="1024" width="1024" viewBox="0 0 1024 1024">
<path d="M896 298.666667H341.333333c-25.6 0-42.666667-17.066667-42.666666-42.666667s17.066667-42.666667 42.666666-42.666667h554.666667c25.6 0 42.666667 17.066667 42.666667 42.666667s-17.066667 42.666667-42.666667 42.666667zM896 554.666667H341.333333c-25.6 0-42.666667-17.066667-42.666666-42.666667s17.066667-42.666667 42.666666-42.666667h554.666667c25.6 0 42.666667 17.066667 42.666667 42.666667s-17.066667 42.666667-42.666667 42.666667zM896 810.666667H341.333333c-25.6 0-42.666667-17.066667-42.666666-42.666667s17.066667-42.666667 42.666666-42.666667h554.666667c25.6 0 42.666667 17.066667 42.666667 42.666667s-17.066667 42.666667-42.666667 42.666667zM128 298.666667h-8.533333c-4.266667 0-4.266667 0-8.533334-4.266667-4.266667 0-4.266667-4.266667-8.533333-4.266667s-4.266667-4.266667-4.266667-4.266666c0-4.266667-4.266667-4.266667-4.266666-4.266667 0-4.266667-4.266667-4.266667-4.266667-8.533333-4.266667-4.266667-4.266667-4.266667-4.266667-8.533334V256c0-4.266667 0-12.8 4.266667-17.066667 4.266667-4.266667 4.266667-8.533333 8.533333-12.8 12.8-12.8 29.866667-17.066667 46.933334-8.533333 4.266667 4.266667 8.533333 4.266667 12.8 8.533333 8.533333 8.533333 12.8 17.066667 12.8 29.866667v8.533333c0 4.266667 0 4.266667-4.266667 8.533334 0 4.266667-4.266667 4.266667-4.266667 8.533333l-4.266666 4.266667c-8.533333 8.533333-17.066667 12.8-29.866667 12.8zM128 554.666667h-8.533333c-4.266667 0-4.266667 0-8.533334-4.266667-4.266667 0-4.266667-4.266667-8.533333-4.266667s-4.266667-4.266667-4.266667-4.266666c-8.533333-8.533333-12.8-17.066667-12.8-29.866667 0-4.266667 0-12.8 4.266667-17.066667 4.266667-4.266667 4.266667-8.533333 8.533333-12.8l4.266667-4.266666c4.266667 0 4.266667-4.266667 8.533333-4.266667s4.266667 0 8.533334-4.266667c12.8-4.266667 29.866667 0 38.4 12.8 4.266667 4.266667 8.533333 8.533333 8.533333 12.8 4.266667 4.266667 4.266667 12.8 4.266667 17.066667v8.533333c0 4.266667 0 4.266667-4.266667 8.533334 0 4.266667-4.266667 4.266667-4.266667 8.533333l-4.266666 4.266667c-8.533333 8.533333-17.066667 12.8-29.866667 12.8zM128 810.666667c-4.266667 0-12.8 0-17.066667-4.266667-4.266667 0-8.533333-4.266667-12.8-8.533333-8.533333-8.533333-12.8-17.066667-12.8-29.866667 0-4.266667 0-12.8 4.266667-17.066667 4.266667-4.266667 4.266667-8.533333 8.533333-12.8 12.8-12.8 29.866667-17.066667 46.933334-8.533333 4.266667 0 8.533333 4.266667 12.8 8.533333 4.266667 4.266667 8.533333 8.533333 8.533333 12.8 4.266667 4.266667 4.266667 12.8 4.266667 17.066667s0 12.8-4.266667 17.066667c-4.266667 4.266667-4.266667 8.533333-8.533333 12.8-8.533333 8.533333-17.066667 12.8-29.866667 12.8z"/>
</svg>
