<svg xmlns="http://www.w3.org/2000/svg" version="1.1" fill-rule="evenodd" clip-rule="evenodd" height="1024" width="1024" viewBox="0 0 1024 1024">
<path d="M1024 512c0 282.7776-229.2224 512-512 512S0 794.7776 0 512 229.2224 0 512 0s512 229.2224 512 512z" fill="#2962FF"/>
<path d="M512 256c127.2448 0 230.4 103.1552 230.4 230.4 0 84.8256-76.8 182.9632-230.4 294.4-153.6-111.4368-230.4-209.5744-230.4-294.4 0-127.2448 103.1552-230.4 230.4-230.4z m0 140.8a89.6 89.6 0 1 0 0 179.2 89.6 89.6 0 0 0 0-179.2z" fill="#FFFFFF"/>
</svg>
