<svg xmlns="http://www.w3.org/2000/svg" version="1.1" fill-rule="evenodd" clip-rule="evenodd" height="1024" width="1024" viewBox="0 0 1024 1024">
<path d="M384 810.666667c-25.6 0-42.666667-17.066667-42.666667-42.666667V213.333333c0-21.333333 17.066667-38.4 34.133334-42.666666l512-85.333334c12.8 0 25.6 0 34.133333 8.533334 12.8 8.533333 17.066667 21.333333 17.066667 34.133333v554.666667c0 25.6-17.066667 42.666667-42.666667 42.666666s-42.666667-17.066667-42.666667-42.666666V179.2L426.666667 247.466667V768c0 25.6-17.066667 42.666667-42.666667 42.666667z"/>
<path d="M256 938.666667c-93.866667 0-170.666667-76.8-170.666667-170.666667s76.8-170.666667 170.666667-170.666667 170.666667 76.8 170.666667 170.666667-76.8 170.666667-170.666667 170.666667z m0-256c-46.933333 0-85.333333 38.4-85.333333 85.333333s38.4 85.333333 85.333333 85.333333 85.333333-38.4 85.333333-85.333333-38.4-85.333333-85.333333-85.333333zM768 853.333333c-93.866667 0-170.666667-76.8-170.666667-170.666666s76.8-170.666667 170.666667-170.666667 170.666667 76.8 170.666667 170.666667-76.8 170.666667-170.666667 170.666666z m0-256c-46.933333 0-85.333333 38.4-85.333333 85.333334s38.4 85.333333 85.333333 85.333333 85.333333-38.4 85.333333-85.333333-38.4-85.333333-85.333333-85.333334z"/>
</svg>
