<svg xmlns="http://www.w3.org/2000/svg" version="1.1" fill-rule="evenodd" clip-rule="evenodd" height="1024" width="1024" viewBox="0 0 1024 1024">
<path d="M245 85.8c-75.1 0-141.4 67.5-158 163.8-30.1 173.7-30.1 347.3 0 521 16.7 96.3 83 163.8 158 163.8 76.5 0 143.7-70 158.8-168.6 26.1-170.5 26.1-341 0-511.5C388.7 155.8 321.5 85.8 245 85.8z m695.8 168.6C925.7 155.8 858.5 85.8 782 85.8c-75.1 0-141.4 67.5-158 163.8-30.1 173.7-30.1 347.3 0 521 16.7 96.3 83 163.8 158 163.8 76.5 0 143.7-70 158.8-168.6 26.1-170.4 26.1-340.9 0-511.4z"/>
</svg>
