<svg xmlns="http://www.w3.org/2000/svg" version="1.1" fill-rule="evenodd" clip-rule="evenodd" height="1024" width="1024" viewBox="0 0 1024 1024">
<path d="M155.904 524.544L91.762 865.65c-5.277 27.99 18.816 52.622 46.506 47.559l354.83-64.967c32.427-5.945 44.317-46.763 20.296-69.59L222.706 502.514c-23.04-21.902-60.9-9.43-66.802 22.03z m65.124 87.723l179.37 170.41-218.965 40.093 39.595-210.49z"/>
<path d="M559.289 113.849a39.723 39.723 0 0 1 54.798-0.953l0.882 0.825 302.691 294.4a40.974 40.974 0 0 1 1.081 57.5l-0.853 0.868-134.315 132.665-55.978-58.155 104.647-103.353L587.32 199.424 224.185 555.918l-55.808-58.31 390.912-383.773z"/>
<path d="M558.706 288.17l56.988 57.146-196.466 201.002-56.988-57.13z m82.19 84.14l56.988 57.13L501.42 630.443l-56.989-57.131z" fill="#FF7000"/>
<path d="M657.778 601.216l52.935 61.013-202.269 179.954-52.906-61.013z"/>
</svg>
