<svg xmlns="http://www.w3.org/2000/svg" version="1.1" fill-rule="evenodd" clip-rule="evenodd" height="1024" width="1024" viewBox="0 0 1024 1024">
<path d="M512 512m-512 0a512 512 0 1 0 1024 0 512 512 0 1 0-1024 0Z" fill="#FF5A20"/>
<path d="M238.481236 628.415011V378.631347c1.130243-2.260486 2.260486-3.390728 2.260486-5.651215 12.432671-42.949227 48.600442-72.335541 93.810154-72.33554 122.066225-1.130243 244.13245-1.130243 366.198676 0 45.209713 0 81.377483 28.256071 93.810154 72.33554 1.130243 2.260486 2.260486 4.520971 2.260486 5.651215v252.04415l-3.390728 10.172185c-13.562914 41.818985-47.470199 67.81457-91.549669 67.81457h-66.684327c-102.852097-1.130243-202.313466 19.214128-297.253863 57.642384-4.520971 2.260486-10.172185 3.390728-15.8234 5.651214v-64.423841c-14.693157-6.781457-28.256071-11.302428-39.558499-18.083885-24.865342-11.302428-36.16777-35.037528-44.07947-61.033113z m291.602649-81.377483c20.344371 0 36.16777-16.953642 36.167771-37.298014 0-19.214128-15.8234-32.777042-39.558499-32.777042-19.214128 0-33.907285 14.693157-33.907285 33.907285 1.130243 20.344371 18.083885 37.298013 37.298013 36.167771z m-126.587196 0c18.083885 0 33.907285-15.8234 32.777042-35.037528 0-20.344371-16.953642-36.16777-37.298014-35.037528-18.083885 0-32.777042 16.953642-32.777042 37.298014 2.260486 18.083885 18.083885 32.777042 37.298014 32.777042z m285.951435-33.907285c0-20.344371-15.8234-36.16777-37.298014-35.037528-18.083885 0-32.777042 16.953642-32.777042 36.167771 0 18.083885 16.953642 32.777042 36.167771 32.777042 18.083885 0 33.907285-15.8234 33.907285-33.907285z" fill="#FFFFFF"/>
</svg>
