<svg xmlns="http://www.w3.org/2000/svg" version="1.1" fill-rule="evenodd" clip-rule="evenodd" height="1024" width="1024" viewBox="0 0 1024 1024">
<path d="M469.333333 853.333333c-213.333333 0-384-170.666667-384-384s170.666667-384 384-384 384 170.666667 384 384-170.666667 384-384 384z m0-682.666666c-166.4 0-298.666667 132.266667-298.666666 298.666666s132.266667 298.666667 298.666666 298.666667 298.666667-132.266667 298.666667-298.666667-132.266667-298.666667-298.666667-298.666666z"/>
<path d="M896 938.666667c-12.8 0-21.333333-4.266667-29.866667-12.8L682.666667 742.4c-17.066667-17.066667-17.066667-42.666667 0-59.733333s42.666667-17.066667 59.733333 0l183.466667 183.466666c17.066667 17.066667 17.066667 42.666667 0 59.733334-8.533333 8.533333-17.066667 12.8-29.866667 12.8z"/>
</svg>
