<svg xmlns="http://www.w3.org/2000/svg" version="1.1" fill-rule="evenodd" clip-rule="evenodd" height="1024" width="1024" viewBox="0 0 1024 1024">
<path d="M724.992 555.315L419.277 861.03c-29.03 29.03-78.848 26.215-111.36-6.246L70.502 617.37c-32.46-32.461-35.276-82.33-6.246-111.36l306.893-306.893c16.742-16.743 41.42-23.552 66.457-18.33l209.972 43.879c19.763 4.147 36.147 20.019 40.96 39.68l54.17 221.747c6.297 25.907-0.308 51.814-17.716 69.222z" fill="#FFB357"/>
<path d="M962.048 522.752L612.454 872.346c-33.177 33.177-86.988 33.177-120.166 0L249.754 629.76c-33.178-33.178-33.178-86.989 0-120.166L600.678 158.72c19.15-19.149 46.285-28.006 73.063-23.91l224.665 34.713c21.146 3.277 37.888 19.456 41.933 40.448l45.159 236.749c5.222 27.7-3.533 56.166-23.45 76.032z" fill="#FFAC3E"/>
<path d="M724.992 555.315c17.408-17.408 24.013-43.315 17.715-69.222l-54.17-221.747c-4.812-19.661-21.196-35.533-40.96-39.68l-93.388-19.508-304.435 304.436c-33.178 33.177-33.178 86.988 0 120.166L450.15 830.157l274.842-274.842z" fill="#FF7C0E"/>
<path d="M759.04 307.763a44.646 44.646 0 1 0 89.293 0 44.646 44.646 0 1 0-89.293 0z" fill="#FFFFFF"/>
</svg>
