<svg xmlns="http://www.w3.org/2000/svg" version="1.1" fill-rule="evenodd" clip-rule="evenodd" height="1024" width="1024" viewBox="0 0 1024 1024">
<path d="M476.109 820.685h178.585c1.536 0 3.021 0.41 4.352 1.177l148.788 86.016c14.745 8.5 33.177-2.099 33.228-19.097l0.154-59.392c0-4.813 3.891-8.653 8.704-8.653h-6.298c75.572 0 136.858-61.286 136.858-136.858V404.173c0-75.571-61.286-136.858-136.858-136.858H476.11c-75.571 0-136.858 61.287-136.858 136.858v279.705c0 75.572 61.287 136.807 136.858 136.807z" fill="#69EDB7"/>
<path d="M723.456 712.5H423.834c-1.536 0-3.021 0.409-4.352 1.177l-148.788 86.016c-14.745 8.499-33.177-2.1-33.228-19.098l-0.154-59.392c0-4.813-3.891-8.653-8.704-8.653h-41.062c-75.572 0-136.858-61.286-136.858-136.857V265.267c0-75.571 61.286-136.857 136.858-136.857h535.91c75.571 0 136.858 61.286 136.858 136.857v310.426c-0.052 75.571-61.287 136.806-136.858 136.806z" fill="#4BE2AC"/>
<path d="M476.109 267.315c-75.571 0-136.858 61.287-136.858 136.858v279.705c0 24.064 6.247 46.644 17.101 66.253l63.078-36.454a8.674 8.674 0 0 1 4.352-1.178h299.623c75.571 0 136.857-61.286 136.857-136.857V295.987c0-9.574 0.154-17.561 0-27.545-4.556-0.461-11.98-1.076-16.64-1.076H476.11z" fill="#06CC76"/>
<path d="M193.69 403.917a56.934 56.934 0 1 0 113.868 0 56.934 56.934 0 1 0-113.868 0zM401.408 403.917a56.934 56.934 0 1 0 113.869 0 56.934 56.934 0 1 0-113.869 0zM611.379 403.917a56.934 56.934 0 1 0 113.869 0 56.934 56.934 0 1 0-113.869 0z" fill="#FFFFFF"/>
</svg>
