<svg xmlns="http://www.w3.org/2000/svg" version="1.1" fill-rule="evenodd" clip-rule="evenodd" height="1024" width="1024" viewBox="0 0 1024 1024">
<path d="M806.042 805.632c0 71.782-58.215 129.997-129.997 129.997H242.074c-70.196 0-127.13-59.187-127.13-132.147V222.464c0-72.96 56.934-132.147 127.13-132.147h436.838c70.195 0 127.13 59.187 127.13 132.147v583.168z" fill="#80B7F9"/>
<path d="M806.042 805.632c0 71.782-58.215 129.997-129.997 129.997H242.074c-70.196 0-127.13-59.187-127.13-132.147V222.464c0-72.96 56.934-132.147 127.13-132.147h436.838c70.195 0 127.13 59.187 127.13 132.147v583.168z" fill="#80B7F9"/>
<path d="M636.928 330.547H314.214c-22.63 0-40.96-18.33-40.96-40.96s18.33-40.96 40.96-40.96h322.714c22.63 0 40.96 18.33 40.96 40.96s-18.33 40.96-40.96 40.96zM500.531 522.24H314.214c-22.63 0-40.96-18.33-40.96-40.96s18.33-40.96 40.96-40.96h186.317c22.63 0 40.96 18.33 40.96 40.96s-18.33 40.96-40.96 40.96z m0.768 191.693H314.214c-22.63 0-40.96-18.33-40.96-40.96s18.33-40.96 40.96-40.96H501.3c22.63 0 40.96 18.33 40.96 40.96s-18.38 40.96-40.96 40.96z" fill="#FFFFFF"/>
<path d="M660.838 935.526h148.378c58.778 0 106.854-48.076 106.854-106.854V516.659c0-58.777-48.076-106.854-106.854-106.854H660.838a18.637 18.637 0 0 0-18.636 18.637v488.396c0 10.292 8.345 18.688 18.636 18.688z" fill="#80B7F9"/>
<path d="M642.202 428.288v488.653c0 10.24 8.294 18.534 18.534 18.534h18.995c70.093-1.945 126.31-59.29 126.31-129.843V409.805H660.737c-10.24 0-18.534 8.294-18.534 18.483z" fill="#3E8BF8"/>
</svg>
