<svg aria-hidden="true" style="position: absolute; width: 0px; height: 0px; overflow: hidden;">
	<symbol id="pen1" viewBox="0 0 1024 1024"><path d="M155.904 524.544L91.762 865.65c-5.277 27.99 18.816 52.622 46.506 47.559l354.83-64.967c32.427-5.945 44.317-46.763 20.296-69.59L222.706 502.514c-23.04-21.902-60.9-9.43-66.802 22.03z m65.124 87.723l179.37 170.41-218.965 40.093 39.595-210.49z"></path>
	<path d="M559.289 113.849a39.723 39.723 0 0 1 54.798-0.953l0.882 0.825 302.691 294.4a40.974 40.974 0 0 1 1.081 57.5l-0.853 0.868-134.315 132.665-55.978-58.155 104.647-103.353L587.32 199.424 224.185 555.918l-55.808-58.31 390.912-383.773z"></path>
	<path d="M558.706 288.17l56.988 57.146-196.466 201.002-56.988-57.13z m82.19 84.14l56.988 57.13L501.42 630.443l-56.989-57.131z" fill="#FF7000"></path>
	<path d="M657.778 601.216l52.935 61.013-202.269 179.954-52.906-61.013z"></path></symbol>
	<symbol id="file" viewBox="0 0 1038 1024"><path d="M408.405 174.933l32.285 90.411 284.26 0.683a71.111 71.111 0 0 1 70.94 71.11v322.916a71.111 71.111 0 0 1-71.111 71.111H195.356a71.111 71.111 0 0 1-71.11-71.11v-413.37a71.111 71.111 0 0 1 70.897-71.11l213.262-0.64z m-58.069 82.646l-143.588 0.44v390.657h506.653V348.473l-330.894-0.782-32.171-90.112z"></path><path d="M921.088 381.582v355.13A112.356 112.356 0 0 1 812.231 849.01l-3.499 0.057H285.696v-82.49h523.036a29.867 29.867 0 0 0 29.796-27.733l0.071-2.133V381.582h82.489z" fill="#FF7000"></path></symbol>
	<symbol id="tag" viewBox="0 0 1024 1024"><path d="M724.992 555.315L419.277 861.03c-29.03 29.03-78.848 26.215-111.36-6.246L70.502 617.37c-32.46-32.461-35.276-82.33-6.246-111.36l306.893-306.893c16.742-16.743 41.42-23.552 66.457-18.33l209.972 43.879c19.763 4.147 36.147 20.019 40.96 39.68l54.17 221.747c6.297 25.907-0.308 51.814-17.716 69.222z" fill="#FFB357"></path><path d="M962.048 522.752L612.454 872.346c-33.177 33.177-86.988 33.177-120.166 0L249.754 629.76c-33.178-33.178-33.178-86.989 0-120.166L600.678 158.72c19.15-19.149 46.285-28.006 73.063-23.91l224.665 34.713c21.146 3.277 37.888 19.456 41.933 40.448l45.159 236.749c5.222 27.7-3.533 56.166-23.45 76.032z" fill="#FFAC3E"></path><path d="M724.992 555.315c17.408-17.408 24.013-43.315 17.715-69.222l-54.17-221.747c-4.812-19.661-21.196-35.533-40.96-39.68l-93.388-19.508-304.435 304.436c-33.178 33.177-33.178 86.988 0 120.166L450.15 830.157l274.842-274.842z" fill="#FF7C0E"></path><path d="M759.04 307.763a44.646 44.646 0 1 0 89.293 0 44.646 44.646 0 1 0-89.293 0z" fill="#FFFFFF"></path></symbol><symbol id="jihebiaoshi01" viewBox="0 0 1024 1024"><path d="M384 640m-277.333333 0a277.333333 277.333333 0 1 0 554.666666 0 277.333333 277.333333 0 1 0-554.666666 0Z" fill="#757CFF"></path><path d="M640 384m-277.333333 0a277.333333 277.333333 0 1 0 554.666666 0 277.333333 277.333333 0 1 0-554.666666 0Z" fill="#A5FFDB"></path><path d="M384 362.666667c153.173333 0 277.333333 124.16 277.333333 277.333333 0 6.912-0.256 13.781333-0.746666 20.565333-6.805333 0.512-13.653333 0.768-20.586667 0.768-153.173333 0-277.333333-124.16-277.333333-277.333333 0-6.912 0.256-13.781333 0.746666-20.586667 6.805333-0.490667 13.653333-0.746667 20.586667-0.746666z" fill="#3842FF"></path></symbol><symbol id="jihebiaoshi16" viewBox="0 0 1152 1024"><path d="M817.28 402.730667l244.309333 360.021333A85.333333 85.333333 0 0 1 990.976 896H502.357333a85.333333 85.333333 0 0 1-70.613333-133.248L676.053333 402.730667a85.333333 85.333333 0 0 1 141.226667 0z" fill="#757CFF"></path><path d="M475.946667 146.730667l244.309333 360.021333A85.333333 85.333333 0 0 1 649.642667 640H161.024a85.333333 85.333333 0 0 1-70.613333-133.248L334.72 146.730667a85.333333 85.333333 0 0 1 141.226667 0z" fill="#FFF191"></path><path d="M662.848 422.186667l57.386667 84.565333A85.333333 85.333333 0 0 1 649.642667 640h-134.570667l147.797333-217.813333z" fill="#3842FF"></path></symbol><symbol id="jihebiaoshi18" viewBox="0 0 1024 1024"><path d="M506.823665 4.288216m75.424724 75.424723l362.038672 362.038672q75.424723 75.424723 0 150.849447l-181.019336 181.019336q-75.424723 75.424723-150.849447 0l-362.038672-362.038672q-75.424723-75.424723 0-150.849447l181.019336-181.019336q75.424723-75.424723 150.849447 0Z" fill="#757CFF"></path><path d="M85.333333 426.666667m106.666667 0l298.666667 0q106.666667 0 106.666666 106.666666l0 298.666667q0 106.666667-106.666666 106.666667l-298.666667 0q-106.666667 0-106.666667-106.666667l0-298.666667q0-106.666667 106.666667-106.666666Z" fill="#FFF191"></path><path d="M490.666667 426.666667a106.666667 106.666667 0 0 1 106.666666 106.666666v225.194667L265.450667 426.666667 490.666667 426.666667z" fill="#3842FF"></path></symbol><symbol id="wenzhang" viewBox="0 0 1024 1024"><path d="M806.042 805.632c0 71.782-58.215 129.997-129.997 129.997H242.074c-70.196 0-127.13-59.187-127.13-132.147V222.464c0-72.96 56.934-132.147 127.13-132.147h436.838c70.195 0 127.13 59.187 127.13 132.147v583.168z" fill="#80B7F9"></path><path d="M806.042 805.632c0 71.782-58.215 129.997-129.997 129.997H242.074c-70.196 0-127.13-59.187-127.13-132.147V222.464c0-72.96 56.934-132.147 127.13-132.147h436.838c70.195 0 127.13 59.187 127.13 132.147v583.168z" fill="#80B7F9"></path><path d="M636.928 330.547H314.214c-22.63 0-40.96-18.33-40.96-40.96s18.33-40.96 40.96-40.96h322.714c22.63 0 40.96 18.33 40.96 40.96s-18.33 40.96-40.96 40.96zM500.531 522.24H314.214c-22.63 0-40.96-18.33-40.96-40.96s18.33-40.96 40.96-40.96h186.317c22.63 0 40.96 18.33 40.96 40.96s-18.33 40.96-40.96 40.96z m0.768 191.693H314.214c-22.63 0-40.96-18.33-40.96-40.96s18.33-40.96 40.96-40.96H501.3c22.63 0 40.96 18.33 40.96 40.96s-18.38 40.96-40.96 40.96z" fill="#FFFFFF"></path><path d="M660.838 935.526h148.378c58.778 0 106.854-48.076 106.854-106.854V516.659c0-58.777-48.076-106.854-106.854-106.854H660.838a18.637 18.637 0 0 0-18.636 18.637v488.396c0 10.292 8.345 18.688 18.636 18.688z" fill="#80B7F9"></path><path d="M642.202 428.288v488.653c0 10.24 8.294 18.534 18.534 18.534h18.995c70.093-1.945 126.31-59.29 126.31-129.843V409.805H660.737c-10.24 0-18.534 8.294-18.534 18.483z" fill="#3E8BF8"></path></symbol><symbol id="tanlun" viewBox="0 0 1024 1024"><path d="M476.109 820.685h178.585c1.536 0 3.021 0.41 4.352 1.177l148.788 86.016c14.745 8.5 33.177-2.099 33.228-19.097l0.154-59.392c0-4.813 3.891-8.653 8.704-8.653h-6.298c75.572 0 136.858-61.286 136.858-136.858V404.173c0-75.571-61.286-136.858-136.858-136.858H476.11c-75.571 0-136.858 61.287-136.858 136.858v279.705c0 75.572 61.287 136.807 136.858 136.807z" fill="#69EDB7"></path><path d="M723.456 712.5H423.834c-1.536 0-3.021 0.409-4.352 1.177l-148.788 86.016c-14.745 8.499-33.177-2.1-33.228-19.098l-0.154-59.392c0-4.813-3.891-8.653-8.704-8.653h-41.062c-75.572 0-136.858-61.286-136.858-136.857V265.267c0-75.571 61.286-136.857 136.858-136.857h535.91c75.571 0 136.858 61.286 136.858 136.857v310.426c-0.052 75.571-61.287 136.806-136.858 136.806z" fill="#4BE2AC"></path><path d="M476.109 267.315c-75.571 0-136.858 61.287-136.858 136.858v279.705c0 24.064 6.247 46.644 17.101 66.253l63.078-36.454a8.674 8.674 0 0 1 4.352-1.178h299.623c75.571 0 136.857-61.286 136.857-136.857V295.987c0-9.574 0.154-17.561 0-27.545-4.556-0.461-11.98-1.076-16.64-1.076H476.11z" fill="#06CC76"></path><path d="M193.69 403.917a56.934 56.934 0 1 0 113.868 0 56.934 56.934 0 1 0-113.868 0zM401.408 403.917a56.934 56.934 0 1 0 113.869 0 56.934 56.934 0 1 0-113.869 0zM611.379 403.917a56.934 56.934 0 1 0 113.869 0 56.934 56.934 0 1 0-113.869 0z" fill="#FFFFFF"></path></symbol><symbol id="book" viewBox="0 0 1024 1024"><path d="M810.666667 85.333333H298.666667a128 128 0 0 0-128 128v597.333334a128 128 0 0 0 128 128h533.333333a21.333333 21.333333 0 0 0 21.333333-21.333334V128a42.666667 42.666667 0 0 0-42.666666-42.666667zM298.666667 277.333333a21.333333 21.333333 0 0 1 21.333333-21.333333h384a21.333333 21.333333 0 0 1 21.333333 21.333333v42.666667a21.333333 21.333333 0 0 1-21.333333 21.333333h-384a21.333333 21.333333 0 0 1-21.333333-21.333333z m0 170.666667a21.333333 21.333333 0 0 1 21.333333-21.333333h213.333333a21.333333 21.333333 0 0 1 21.333334 21.333333v42.666667a21.333333 21.333333 0 0 1-21.333334 21.333333h-213.333333a21.333333 21.333333 0 0 1-21.333333-21.333333zM256 810.666667a42.666667 42.666667 0 0 1 42.666667-42.666667h469.333333v85.333333H298.666667a42.666667 42.666667 0 0 1-42.666667-42.666666z"></path></symbol><symbol id="label" viewBox="0 0 1024 1024"><path d="M883.626667 145.493333l-5.12-5.12a44.8 44.8 0 0 0-30.293334-12.373333h-339.2a85.333333 85.333333 0 0 0-60.586666 25.173333l-308.053334 308.053334a42.666667 42.666667 0 0 0 0 60.16l362.24 362.24a42.666667 42.666667 0 0 0 60.16 0l308.053334-308.053334a85.333333 85.333333 0 0 0 25.173333-60.586666V175.786667a44.8 44.8 0 0 0-12.373333-30.293334zM682.666667 426.666667a85.333333 85.333333 0 1 1 85.333333-85.333334 85.333333 85.333333 0 0 1-85.333333 85.333334z"></path></symbol><symbol id="navigate" viewBox="0 0 1024 1024"><path d="M810.666667 850.346667a21.76 21.76 0 0 1-5.12 23.04l-16.213334 16.213333a20.906667 20.906667 0 0 1-29.013333 0 359.68 359.68 0 0 0-494.08 0 20.906667 20.906667 0 0 1-29.013333 0l-16.213334-16.213333a21.76 21.76 0 0 1-7.68-23.04l272.213334-708.693334a21.76 21.76 0 0 1 20.053333-13.653333h12.8a21.76 21.76 0 0 1 20.053333 13.653333z"></path></symbol><symbol id="launch" viewBox="0 0 1024 1024"><path d="M883.626667 158.72l-18.346667-18.346667a42.666667 42.666667 0 0 0-37.973333-12.373333l-234.666667 42.666667a165.973333 165.973333 0 0 0-100.693333 60.16L399.786667 349.44a128 128 0 0 0-147.626667 46.506667l-120.32 170.666666a21.333333 21.333333 0 0 0 5.12 29.44l17.493333 12.373334a128 128 0 0 0 178.346667-31.573334l26.88-37.973333 124.16 124.16-37.973333 26.88a128 128 0 0 0-31.573334 178.346667l12.373334 17.493333a21.333333 21.333333 0 0 0 29.44 5.12l170.666666-120.32a128 128 0 0 0 46.506667-147.626667l117.333333-92.16A165.973333 165.973333 0 0 0 853.333333 431.36l42.666667-234.666667a42.666667 42.666667 0 0 0-12.373333-37.973333z m-177.066667 249.173333a64 64 0 1 1 0-90.453333 63.573333 63.573333 0 0 1 0 90.453333z m-372.906667 312.32a21.333333 21.333333 0 0 1 0 30.293334l-139.093333 139.093333a21.333333 21.333333 0 0 1-30.293333 0l-29.866667-29.866667a21.333333 21.333333 0 0 1 0-30.293333l139.093333-139.093333a21.333333 21.333333 0 0 1 30.293334 0z"></path></symbol><symbol id="pen" viewBox="0 0 1024 1024"><path d="M889.6 405.76l-271.36-271.36a21.333333 21.333333 0 0 0-30.293333 0l-115.2 115.2a21.333333 21.333333 0 0 0 0 30.293333l25.173333 25.6-231.68 92.586667A85.333333 85.333333 0 0 0 213.333333 456.533333l-85.333333 343.893334a42.666667 42.666667 0 0 0 11.093333 40.533333l42.666667 42.666667A42.666667 42.666667 0 0 0 213.333333 896a42.666667 42.666667 0 0 0 10.24 0l343.893334-85.333333a85.333333 85.333333 0 0 0 58.453333-51.2l92.586667-231.68 25.6 25.173333a21.333333 21.333333 0 0 0 30.293333 0l115.2-115.2a21.333333 21.333333 0 0 0 0-32z m-341.333333 320.426667l-262.826667 65.28 122.026667-122.026667a27.306667 27.306667 0 0 1 19.2-8.106667A64 64 0 1 0 362.666667 597.333333a27.306667 27.306667 0 0 1-8.106667 19.2l-122.026667 122.026667L298.666667 477.013333l265.813333-106.24 89.6 89.6z"></path></symbol><symbol id="QQ" viewBox="0 0 1024 1024"><path d="M511.09761 957.257c-80.159 0-153.737-25.019-201.11-62.386-24.057 6.702-54.831 17.489-74.252 30.864-16.617 11.439-14.546 23.106-11.55 27.816 13.15 20.689 225.583 13.211 286.912 6.767v-3.061z" fill="#FAAD08"></path><path d="M496.65061 957.257c80.157 0 153.737-25.019 201.11-62.386 24.057 6.702 54.83 17.489 74.253 30.864 16.616 11.439 14.543 23.106 11.55 27.816-13.15 20.689-225.584 13.211-286.914 6.767v-3.061z" fill="#FAAD08"></path><path d="M497.12861 474.524c131.934-0.876 237.669-25.783 273.497-35.34 8.541-2.28 13.11-6.364 13.11-6.364 0.03-1.172 0.542-20.952 0.542-31.155C784.27761 229.833 701.12561 57.173 496.64061 57.162 292.15661 57.173 209.00061 229.832 209.00061 401.665c0 10.203 0.516 29.983 0.547 31.155 0 0 3.717 3.821 10.529 5.67 33.078 8.98 140.803 35.139 276.08 36.034h0.972z" fill="#000000"></path><path d="M860.28261 619.782c-8.12-26.086-19.204-56.506-30.427-85.72 0 0-6.456-0.795-9.718 0.148-100.71 29.205-222.773 47.818-315.792 46.695h-0.962C410.88561 582.017 289.65061 563.617 189.27961 534.698 185.44461 533.595 177.87261 534.063 177.87261 534.063 166.64961 563.276 155.56661 593.696 147.44761 619.782 108.72961 744.168 121.27261 795.644 130.82461 796.798c20.496 2.474 79.78-93.637 79.78-93.637 0 97.66 88.324 247.617 290.576 248.996a718.01 718.01 0 0 1 5.367 0C708.80161 950.778 797.12261 800.822 797.12261 703.162c0 0 59.284 96.111 79.783 93.637 9.55-1.154 22.093-52.63-16.623-177.017" fill="#000000"></path><path d="M434.38261 316.917c-27.9 1.24-51.745-30.106-53.24-69.956-1.518-39.877 19.858-73.207 47.764-74.454 27.875-1.224 51.703 30.109 53.218 69.974 1.527 39.877-19.853 73.2-47.742 74.436m206.67-69.956c-1.494 39.85-25.34 71.194-53.24 69.956-27.888-1.238-49.269-34.559-47.742-74.435 1.513-39.868 25.341-71.201 53.216-69.974 27.909 1.247 49.285 34.576 47.767 74.453" fill="#FFFFFF"></path><path d="M683.94261 368.627c-7.323-17.609-81.062-37.227-172.353-37.227h-0.98c-91.29 0-165.031 19.618-172.352 37.227a6.244 6.244 0 0 0-0.535 2.505c0 1.269 0.393 2.414 1.006 3.386 6.168 9.765 88.054 58.018 171.882 58.018h0.98c83.827 0 165.71-48.25 171.881-58.016a6.352 6.352 0 0 0 1.002-3.395c0-0.897-0.2-1.736-0.531-2.498" fill="#FAAD08"></path><path d="M467.63161 256.377c1.26 15.886-7.377 30-19.266 31.542-11.907 1.544-22.569-10.083-23.836-25.978-1.243-15.895 7.381-30.008 19.25-31.538 11.927-1.549 22.607 10.088 23.852 25.974m73.097 7.935c2.533-4.118 19.827-25.77 55.62-17.886 9.401 2.07 13.75 5.116 14.668 6.316 1.355 1.77 1.726 4.29 0.352 7.684-2.722 6.725-8.338 6.542-11.454 5.226-2.01-0.85-26.94-15.889-49.905 6.553-1.579 1.545-4.405 2.074-7.085 0.242-2.678-1.834-3.786-5.553-2.196-8.135" fill="#000000"></path><path d="M504.33261 584.495h-0.967c-63.568 0.752-140.646-7.504-215.286-21.92-6.391 36.262-10.25 81.838-6.936 136.196 8.37 137.384 91.62 223.736 220.118 224.996H506.48461c128.498-1.26 211.748-87.612 220.12-224.996 3.314-54.362-0.547-99.938-6.94-136.203-74.654 14.423-151.745 22.684-215.332 21.927" fill="#FFFFFF"></path><path d="M323.27461 577.016v137.468s64.957 12.705 130.031 3.91V591.59c-41.225-2.262-85.688-7.304-130.031-14.574" fill="#EB1C26"></path><path d="M788.09761 432.536s-121.98 40.387-283.743 41.539h-0.962c-161.497-1.147-283.328-41.401-283.744-41.539l-40.854 106.952c102.186 32.31 228.837 53.135 324.598 51.926l0.96-0.002c95.768 1.216 222.4-19.61 324.6-51.924l-40.855-106.952z" fill="#EB1C26"></path></symbol><symbol id="weixinzhifu" viewBox="0 0 1024 1024"><path d="M395.846 603.585c-3.921 1.98-7.936 2.925-12.81 2.925-10.9 0-19.791-5.85-24.764-14.625l-2.006-3.864-78.106-167.913c-0.956-1.98-0.956-3.865-0.956-5.845 0-7.83 5.928-13.68 13.863-13.68 2.965 0 5.928 0.944 8.893 2.924l91.965 64.43c6.884 3.864 14.82 6.79 23.708 6.79 4.972 0 9.85-0.945 14.822-2.926L861.71 282.479c-77.149-89.804-204.684-148.384-349.135-148.384-235.371 0-427.242 157.158-427.242 351.294 0 105.368 57.361 201.017 147.323 265.447 6.88 4.905 11.852 13.68 11.852 22.45 0 2.925-0.957 5.85-2.006 8.775-6.881 26.318-18.831 69.334-18.831 71.223-0.958 2.92-2.013 6.79-2.013 10.75 0 7.83 5.929 13.68 13.865 13.68 2.963 0 5.928-0.944 7.935-2.925l92.922-53.674c6.885-3.87 14.82-6.794 22.756-6.794 3.916 0 8.889 0.944 12.81 1.98 43.496 12.644 91.012 19.53 139.48 19.53 235.372 0 427.24-157.158 427.24-351.294 0-58.58-17.78-114.143-48.467-163.003l-491.39 280.07-2.963 1.98z" fill="#09BB07"></path></symbol><symbol id="zhifubao" viewBox="0 0 1024 1024"><path d="M902.095 652.871l-250.96-84.392s19.287-28.87 39.874-85.472c20.59-56.606 23.539-87.689 23.539-87.689l-162.454-1.339v-55.487l196.739-1.387v-39.227H552.055v-89.29h-96.358v89.294H272.133v39.227l183.564-1.304v59.513h-147.24v31.079h303.064s-3.337 25.223-14.955 56.606c-11.615 31.38-23.58 58.862-23.58 58.862s-142.3-49.804-217.285-49.804c-74.985 0-166.182 30.123-175.024 117.55-8.8 87.383 42.481 134.716 114.728 152.139 72.256 17.513 138.962-0.173 197.04-28.607 58.087-28.391 115.081-92.933 115.081-92.933l292.486 142.041c-11.932 69.3-72.067 119.914-142.387 119.844H266.37c-79.714 0.078-144.392-64.483-144.466-144.194V266.374c-0.074-79.72 64.493-144.399 144.205-144.47h491.519c79.714-0.073 144.396 64.49 144.466 144.203v386.764z m-365.76-48.895s-91.302 115.262-198.879 115.262c-107.623 0-130.218-54.767-130.218-94.155 0-39.34 22.373-82.144 113.943-88.333 91.519-6.18 215.2 67.226 215.2 67.226h-0.047z" fill="#02A9F1"></path></symbol><symbol id="jinbi" viewBox="0 0 1024 1024"><path d="M511.87 33.99c-265.1 0-480 214.9-480 480s214.9 480 480 480 480-214.9 480-480-214.91-480-480-480z m240.39 496.09c-36.02 26.35-100.84 74.68-124.28 98.12-23.27 23.27-71.04 87.27-97.51 123.45-9.17 12.53-27.86 12.42-36.68-0.21-25.84-36.99-72.94-102.93-96.42-126.4-22.83-22.83-87.07-68.34-123.33-93.43-12.57-8.7-12.88-27.2-0.61-36.5 35.58-26.98 98.95-75.86 122.27-99.18 23.46-23.46 72.77-87.42 99.65-122.89 9.17-12.1 27.34-12 36.21 0.2 25.13 34.58 70.47 95.7 92.94 118.16 24.08 24.08 91.39 75.07 128.1 102.4 12.12 9.03 11.96 27.28-0.34 36.28z"></path></symbol><symbol id="profile" viewBox="0 0 1024 1024"><path d="M512 0c282.7776 0 512 229.2224 512 512S794.7776 1024 512 1024 0 794.7776 0 512 229.2224 0 512 0" fill="#FF0808"></path><path d="M624.1664 538.5856C703.6032 538.5856 768 602.9824 768 682.432A72.7808 72.7808 0 0 1 695.2192 755.2H328.7808A72.7808 72.7808 0 0 1 256 682.432c0-79.4368 64.3968-143.8464 143.8464-143.8464zM512 243.2c70.6944 0 128 57.3056 128 128s-57.3056 128-128 128-128-57.3056-128-128 57.3056-128 128-128z" fill="#FFFFFF"></path></symbol><symbol id="diamond" viewBox="0 0 1024 1024"><path d="M512 0C229.2352 0 0 229.2352 0 512s229.2352 512 512 512 512-229.2352 512-512S794.7648 0 512 0z" fill="#AA00FF"></path><path d="M332.8 332.8h358.4l102.4 128H230.4zM793.6 460.8L512 768 230.4 460.8z" fill="#FFFFFF"></path></symbol><symbol id="loaction" viewBox="0 0 1024 1024"><path d="M1024 512c0 282.7776-229.2224 512-512 512S0 794.7776 0 512 229.2224 0 512 0s512 229.2224 512 512z" fill="#2962FF"></path><path d="M512 256c127.2448 0 230.4 103.1552 230.4 230.4 0 84.8256-76.8 182.9632-230.4 294.4-153.6-111.4368-230.4-209.5744-230.4-294.4 0-127.2448 103.1552-230.4 230.4-230.4z m0 140.8a89.6 89.6 0 1 0 0 179.2 89.6 89.6 0 0 0 0-179.2z" fill="#FFFFFF"></path></symbol><symbol id="biaoqian1" viewBox="0 0 1024 1024"><path d="M908.2368 463.8208l-156.5696 441.856c-18.8928 53.3504-77.568 81.152-130.816 61.952l-369.152-132.8128c-58.9312-21.1968-85.0432-89.9584-55.0912-144.9472l38.4512-70.5536 278.7328 132.0448 394.4448-287.5392z" fill="#7A7AF9"></path><path d="M117.2992 450.4064l374.784-370.4832c19.968-19.712 47.616-29.5936 75.5712-26.9824l271.2576 25.6c45.7728 4.3008 81.6128 41.216 84.6336 87.04l17.152 259.7888c1.792 27.3408-8.2944 54.1184-27.6992 73.4208l-373.248 371.712c-40.2432 40.0896-105.2672 40.192-145.664 0.3072L117.3504 597.504c-41.0112-40.448-41.0112-106.5984-0.0512-147.0976z" fill="#CCDAFF"></path><path d="M767.0784 227.2256m-60.1088 0a60.1088 60.1088 0 1 0 120.2176 0 60.1088 60.1088 0 1 0-120.2176 0Z" fill="#7A7AF9"></path><path d="M696.2176 415.5392l-117.9648-4.2496-4.4032-116.1728a33.26464 33.26464 0 0 0-34.5088-32 33.29024 33.29024 0 0 0-32 34.5088l3.584 94.9248-37.376-37.7344a33.24928 33.24928 0 0 0-47.0528-0.2048 33.24928 33.24928 0 0 0-0.2048 47.0528l57.7536 58.2656L450.56 493.8752 393.1136 435.9168a33.24928 33.24928 0 0 0-47.0528-0.2048 33.24928 33.24928 0 0 0-0.2048 47.0528l58.0096 58.5216-36.0448 36.608a33.24928 33.24928 0 0 0 0.3584 47.0528 33.11104 33.11104 0 0 0 23.3472 9.5744c8.6016 0 17.2032-3.328 23.7056-9.9328l35.4304-35.9936 55.9104 56.4224a33.1776 33.1776 0 0 0 23.6544 9.8304 33.24928 33.24928 0 0 0 23.6544-56.6784l-56.5248-57.0368 33.4336-33.9456 56.2176 56.7296a33.1776 33.1776 0 0 0 23.6544 9.8304 33.24928 33.24928 0 0 0 23.6544-56.6784l-38.1952-38.5024 97.6384 3.5328h1.2288c17.8176 0 32.6144-14.1312 33.2288-32.0512a33.2288 33.2288 0 0 0-32-34.5088z" fill="#7A7AF9"></path></symbol><symbol id="home" viewBox="0 0 1024 1024"><path d="M1024 512c0 282.7776-229.2224 512-512 512S0 794.7776 0 512 229.2224 0 512 0s512 229.2224 512 512z" fill="#2962FF"></path><path d="M493.5936 234.9056a39.3984 39.3984 0 0 1 36.608 0l1.9584 1.024 1.6384 1.536 243.7376 224.512a45.4144 45.4144 0 0 1 13.7344 49.024 36.8896 36.8896 0 0 1-35.6096 23.168H704V716.8a51.2 51.2 0 0 1-51.2 51.2h-76.8v-115.2a64 64 0 0 0-128 0v115.2h-76.8a51.2 51.2 0 0 1-51.2-51.2V534.1696h-54.2336a36.6336 36.6336 0 0 1-33.024-23.552 44.9536 44.9536 0 0 1 13.9136-48.896l244.992-225.792z" fill="#FFFFFF"></path></symbol><symbol id="eyeshield" viewBox="0 0 1024 1024"><path d="M172.032 168.532L512 93.092l339.968 75.44c18.926 4.2 32.396 20.962 32.396 40.324v412.612c0 82.88-41.49 160.274-110.55 206.244L512 930.91l-261.814-103.198c-69.048-45.962-110.53-123.338-110.55-206.202V208.856c0-19.36 13.47-36.122 32.396-40.324z" fill="#06D387"></path><path d="M512 279.272c102.828 0 186.18 83.354 186.18 186.182 0 102.828-83.352 186.182-186.18 186.182s-186.18-83.354-186.18-186.18c0-102.83 83.352-186.184 186.18-186.184z m0 93.092a93.28 93.28 0 0 0-27.424 4.096 46.546 46.546 0 1 1-61.552 61.57c-11.842 38.414 2.31 80.09 35.096 103.35 32.786 23.26 76.8 22.846 109.142-1.024 32.344-23.87 45.712-65.806 33.15-103.99-12.56-38.186-48.214-63.996-88.412-64.002z" fill="#FFFFFF"></path></symbol><symbol id="forhelp" viewBox="0 0 1024 1024"><path d="M427.886 109.714h168.228c185.82 0 336.458 151.14 336.458 337.582S781.934 784.88 596.114 784.88v147.692C385.828 848.176 91.428 721.58 91.428 447.296c0-186.44 150.638-337.58 336.458-337.58z" fill="#FE544A"></path><path d="M649.578 503.508c23.28-23.096 32.372-56.76 23.852-88.312-8.522-31.552-33.362-56.196-65.164-64.65-31.804-8.454-65.736 0.566-89.016 23.664L512 381.4l-7.25-7.192c-23.28-23.098-57.212-32.12-89.016-23.664-31.8 8.454-56.64 33.1-65.164 64.65-8.52 31.55 0.572 65.216 23.852 88.312l111.82 110.94c14.26 14.144 37.258 14.144 51.516 0l111.82-110.94z" fill="#FFFFFF"></path></symbol><symbol id="biaoqian2" viewBox="0 0 1024 1024"><path d="M4.12402005 512a508.25554034 507.87597995 90 1 0 1015.7519599 0 508.25554034 507.87597995 90 1 0-1015.7519599 0Z" fill="#B23AEE"></path><path d="M528.40375296 837.28307997l239.25681152-239.67130056s21.63958784-18.38072605 21.63725995-44.7310518V405.3738587l-29.1236773 16.64359765v79.4747813s1.60206962 27.38654777-32.45821724 58.87840029c-31.20660025 30.58020921-238.08436679 237.79911453-238.0843668 237.79911452l38.77218987 39.11332751z m67.56404224-440.94647866s47.62898205-206.59484217 142.30363363-209.53468814c93.58021518-2.90375225 113.62704725 68.53972082 111.23791418 113.41514525-2.84670179 53.47490702-55.63234645 93.59069298-89.33635983 99.83247929 0-26.90802347 0.15135858-37.83493177 0.15135858-37.83493177s55.12820622-14.76791865 55.34127218-63.24567154c0.16183751-37.46934329-20.59754382-86.12290446-77.39418511-79.8950912-67.03778019 7.35485155-114.84373561 195.98578574-114.8437356 195.98578688l-9.98732232 9.98732231-17.47723377-28.71035108h0.00465806z m98.81255595-107.05576618h26.27813944v204.7214922c0.63337699 17.39922546-19.96998883 38.69418155-19.96998883 38.69418154L396.50542365 834.78683193 174.30669881 610.09185792S445.18692864 340.46208114 475.14656882 310.50127701c21.22044189-21.22044189 34.94980835-21.22044189 34.94980835-21.22044188h158.886689l-36.35278393 91.95485866 3.89456669 17.8137145c1.52522638 6.96364829 0.95588579 18.91746589 0.95588579 18.91746588-3.70478649 15.3267803-17.50284743 26.71475029-33.96947171 26.71475029-19.30517618 0-35.78693746-16.48292523-35.78693746-35.78693745 0-9.86041458 10.95950905-30.23907157 27.73234346-33.62367602l10.27373966-33.64929195c-44.94178873 9.15368733-68.79819435 37.92341789-68.79819434 68.10660409 0 37.07581213 30.05744128 67.13325227 67.13441735 67.13325226s67.13325227-30.05744128 67.13325227-67.13325226c-0.83247104-13.17865586-2.07943111-15.67490389-6.50491677-29.2796928-3.6209573-11.98525326 18.0419163-63.7870683 18.04191631-63.7870683l12.04346766-27.3807269z" fill="#FFFFFF"></path></symbol><symbol id="bidianliang" viewBox="0 0 1024 1024"><path d="M512 512m-499.2 0a499.2 499.2 0 1 0 998.4 0 499.2 499.2 0 1 0-998.4 0Z" fill="#9266f9"></path><path d="M753.536 489.6l46.592-46.592c25.472-25.472 25.472-67.584 0-93.056l-133.12-133.12c-25.472-25.472-67.584-25.472-93.056 0L527.36 263.424l226.176 226.176zM561.28 347.136l167.168 167.168-230.272 230.272c-54.656 11.776-66.432-14.976-59.136-59.136-55.424-7.68-96.768-32.384-106.496-95.488l155.392-150.528-14.208-14.208L314.496 579.84c-40.064 3.2-48.512-22.656-42.496-61.568L502.272 288l59.008 59.136zM232.704 657.536L204.8 779.776l45.312 45.312 122.24-27.904-139.648-139.648z m0 0" fill="#FFFFFF"></path></symbol><symbol id="list" viewBox="0 0 1024 1024"><path d="M896 298.666667H341.333333c-25.6 0-42.666667-17.066667-42.666666-42.666667s17.066667-42.666667 42.666666-42.666667h554.666667c25.6 0 42.666667 17.066667 42.666667 42.666667s-17.066667 42.666667-42.666667 42.666667zM896 554.666667H341.333333c-25.6 0-42.666667-17.066667-42.666666-42.666667s17.066667-42.666667 42.666666-42.666667h554.666667c25.6 0 42.666667 17.066667 42.666667 42.666667s-17.066667 42.666667-42.666667 42.666667zM896 810.666667H341.333333c-25.6 0-42.666667-17.066667-42.666666-42.666667s17.066667-42.666667 42.666666-42.666667h554.666667c25.6 0 42.666667 17.066667 42.666667 42.666667s-17.066667 42.666667-42.666667 42.666667zM128 298.666667h-8.533333c-4.266667 0-4.266667 0-8.533334-4.266667-4.266667 0-4.266667-4.266667-8.533333-4.266667s-4.266667-4.266667-4.266667-4.266666c0-4.266667-4.266667-4.266667-4.266666-4.266667 0-4.266667-4.266667-4.266667-4.266667-8.533333-4.266667-4.266667-4.266667-4.266667-4.266667-8.533334V256c0-4.266667 0-12.8 4.266667-17.066667 4.266667-4.266667 4.266667-8.533333 8.533333-12.8 12.8-12.8 29.866667-17.066667 46.933334-8.533333 4.266667 4.266667 8.533333 4.266667 12.8 8.533333 8.533333 8.533333 12.8 17.066667 12.8 29.866667v8.533333c0 4.266667 0 4.266667-4.266667 8.533334 0 4.266667-4.266667 4.266667-4.266667 8.533333l-4.266666 4.266667c-8.533333 8.533333-17.066667 12.8-29.866667 12.8zM128 554.666667h-8.533333c-4.266667 0-4.266667 0-8.533334-4.266667-4.266667 0-4.266667-4.266667-8.533333-4.266667s-4.266667-4.266667-4.266667-4.266666c-8.533333-8.533333-12.8-17.066667-12.8-29.866667 0-4.266667 0-12.8 4.266667-17.066667 4.266667-4.266667 4.266667-8.533333 8.533333-12.8l4.266667-4.266666c4.266667 0 4.266667-4.266667 8.533333-4.266667s4.266667 0 8.533334-4.266667c12.8-4.266667 29.866667 0 38.4 12.8 4.266667 4.266667 8.533333 8.533333 8.533333 12.8 4.266667 4.266667 4.266667 12.8 4.266667 17.066667v8.533333c0 4.266667 0 4.266667-4.266667 8.533334 0 4.266667-4.266667 4.266667-4.266667 8.533333l-4.266666 4.266667c-8.533333 8.533333-17.066667 12.8-29.866667 12.8zM128 810.666667c-4.266667 0-12.8 0-17.066667-4.266667-4.266667 0-8.533333-4.266667-12.8-8.533333-8.533333-8.533333-12.8-17.066667-12.8-29.866667 0-4.266667 0-12.8 4.266667-17.066667 4.266667-4.266667 4.266667-8.533333 8.533333-12.8 12.8-12.8 29.866667-17.066667 46.933334-8.533333 4.266667 0 8.533333 4.266667 12.8 8.533333 4.266667 4.266667 8.533333 8.533333 8.533333 12.8 4.266667 4.266667 4.266667 12.8 4.266667 17.066667s0 12.8-4.266667 17.066667c-4.266667 4.266667-4.266667 8.533333-8.533333 12.8-8.533333 8.533333-17.066667 12.8-29.866667 12.8z"></path></symbol><symbol id="pinglun1" viewBox="0 0 1025 1024"><path d="M512 512m-512 0a512 512 0 1 0 1024 0 512 512 0 1 0-1024 0Z" fill="#FF5A20"></path><path d="M238.481236 628.415011V378.631347c1.130243-2.260486 2.260486-3.390728 2.260486-5.651215 12.432671-42.949227 48.600442-72.335541 93.810154-72.33554 122.066225-1.130243 244.13245-1.130243 366.198676 0 45.209713 0 81.377483 28.256071 93.810154 72.33554 1.130243 2.260486 2.260486 4.520971 2.260486 5.651215v252.04415l-3.390728 10.172185c-13.562914 41.818985-47.470199 67.81457-91.549669 67.81457h-66.684327c-102.852097-1.130243-202.313466 19.214128-297.253863 57.642384-4.520971 2.260486-10.172185 3.390728-15.8234 5.651214v-64.423841c-14.693157-6.781457-28.256071-11.302428-39.558499-18.083885-24.865342-11.302428-36.16777-35.037528-44.07947-61.033113z m291.602649-81.377483c20.344371 0 36.16777-16.953642 36.167771-37.298014 0-19.214128-15.8234-32.777042-39.558499-32.777042-19.214128 0-33.907285 14.693157-33.907285 33.907285 1.130243 20.344371 18.083885 37.298013 37.298013 36.167771z m-126.587196 0c18.083885 0 33.907285-15.8234 32.777042-35.037528 0-20.344371-16.953642-36.16777-37.298014-35.037528-18.083885 0-32.777042 16.953642-32.777042 37.298014 2.260486 18.083885 18.083885 32.777042 37.298014 32.777042z m285.951435-33.907285c0-20.344371-15.8234-36.16777-37.298014-35.037528-18.083885 0-32.777042 16.953642-32.777042 36.167771 0 18.083885 16.953642 32.777042 36.167771 32.777042 18.083885 0 33.907285-15.8234 33.907285-33.907285z" fill="#FFFFFF"></path></symbol><symbol id="arrow-up-circle" viewBox="0 0 1024 1024"><path d="M512 981.333333C251.733333 981.333333 42.666667 772.266667 42.666667 512S251.733333 42.666667 512 42.666667s469.333333 209.066667 469.333333 469.333333-209.066667 469.333333-469.333333 469.333333z m0-853.333333c-213.333333 0-384 170.666667-384 384s170.666667 384 384 384 384-170.666667 384-384-170.666667-384-384-384z"></path><path d="M682.666667 554.666667c-12.8 0-21.333333-4.266667-29.866667-12.8L512 401.066667l-140.8 140.8c-17.066667 17.066667-42.666667 17.066667-59.733333 0s-17.066667-42.666667 0-59.733334l170.666666-170.666666c17.066667-17.066667 42.666667-17.066667 59.733334 0l170.666666 170.666666c17.066667 17.066667 17.066667 42.666667 0 59.733334-8.533333 8.533333-17.066667 12.8-29.866666 12.8z"></path><path d="M512 725.333333c-25.6 0-42.666667-17.066667-42.666667-42.666666V341.333333c0-25.6 17.066667-42.666667 42.666667-42.666666s42.666667 17.066667 42.666667 42.666666v341.333334c0 25.6-17.066667 42.666667-42.666667 42.666666z"></path></symbol><symbol id="x" viewBox="0 0 1024 1024"><path d="M256 810.666667c-12.8 0-21.333333-4.266667-29.866667-12.8-17.066667-17.066667-17.066667-42.666667 0-59.733334l512-512c17.066667-17.066667 42.666667-17.066667 59.733334 0s17.066667 42.666667 0 59.733334l-512 512c-8.533333 8.533333-17.066667 12.8-29.866667 12.8z"></path><path d="M768 810.666667c-12.8 0-21.333333-4.266667-29.866667-12.8l-512-512c-17.066667-17.066667-17.066667-42.666667 0-59.733334s42.666667-17.066667 59.733334 0l512 512c17.066667 17.066667 17.066667 42.666667 0 59.733334-8.533333 8.533333-17.066667 12.8-29.866667 12.8z"></path></symbol><symbol id="pause" viewBox="0 0 1024 1024"><path d="M245 85.8c-75.1 0-141.4 67.5-158 163.8-30.1 173.7-30.1 347.3 0 521 16.7 96.3 83 163.8 158 163.8 76.5 0 143.7-70 158.8-168.6 26.1-170.5 26.1-341 0-511.5C388.7 155.8 321.5 85.8 245 85.8z m695.8 168.6C925.7 155.8 858.5 85.8 782 85.8c-75.1 0-141.4 67.5-158 163.8-30.1 173.7-30.1 347.3 0 521 16.7 96.3 83 163.8 158 163.8 76.5 0 143.7-70 158.8-168.6 26.1-170.4 26.1-340.9 0-511.4z"></path></symbol><symbol id="next" viewBox="0 0 1024 1024"><path d="M88.70000000000027 846.6000000000001c8.600000000000023 56.3 63.800000000000026 91.49999999999997 116.30000000000003 73.59999999999997C413 849 599.4000000000001 747.5999999999999 764.5 616c2.40000000000002 77.4 7.600000000000051 154.8 15.500000000000071 232.2 1.4210854715202004e-14 46.7 36.70000000000003 84.49999999999997 81.90000000000003 84.49999999999996s81.9-37.900000000000034 81.89999999999996-84.50000000000003c20.49999999999993-225 20.499999999999858-450.1-1.7053025658242404e-13-675.0999999999999-1.4210854715202004e-14-46.7-36.70000000000003-84.49999999999997-81.90000000000003-84.49999999999996s-81.9 37.900000000000034-81.89999999999996 84.50000000000003c-7.799999999999983 76.5-12.899999999999949 153.09999999999997-15.399999999999935 229.6-161.20000000000007-131.99999999999994-348-232.69999999999982-560.4000000000001-301.89999999999986-52.3-16.999999999999975-106.69999999999999 18.10000000000003-115.3 73.90000000000006-34.19999999999992 223.99999999999997-34.29999999999984 447.9-0.19999999999970441 671.9z"></path></symbol><symbol id="biaoqian" viewBox="0 0 1024 1024"><path d="M512 512m-509.26933333 0a509.26933333 509.26933333 0 1 0 1018.53866666 0 509.26933333 509.26933333 0 1 0-1018.53866666 0Z" fill="#1e9969"></path><path d="M307.2 220.04622222c-35.04355555 0-64.62577778 29.696-64.62577778 64.62577778v148.36622222c0 35.04355555 21.61777778 83.62666667 45.85244445 107.86133333l253.38311111 253.38311112c24.23466667 24.23466667 64.62577778 24.23466667 88.97422222 0l186.02666667-186.02666667c24.23466667-24.23466667 24.23466667-64.62577778 0-88.97422222L563.31377778 265.89866667c-24.23466667-24.23466667-72.81777778-45.85244445-107.86133333-45.85244445H307.2z m83.51288889 212.992c-35.04355555 0-64.62577778-29.696-64.62577778-64.62577777 0-35.04355555 29.696-64.62577778 64.62577778-64.62577778 35.04355555 0 64.62577778 29.696 64.62577778 64.62577778 0.11377778 34.92977778-29.58222222 64.62577778-64.62577778 64.62577777z" fill="#FFFFFF"></path></symbol><symbol id="bofang" viewBox="0 0 1024 1024"><path d="M290.08782222 947.51099221c-42.71976334 0-81.55591111-27.18530333-97.09037-66.02145109-19.41807445-54.37060779-34.95253333-112.62483001-46.60337777-174.76266667v-11.65084443c-3.88361443-27.18530333-7.76723001-54.37060779-11.65084444-85.43952669v-11.65084445c-3.88361443-31.0689189-3.88361443-62.13783666-3.88361558-89.32313998 0-27.18530333 0-54.37060779 3.88361558-89.32314112v-11.65084445c3.88361443-27.18530333 7.76723001-58.25422222 11.65084444-85.43952554v-11.65084444c11.65084445-58.25422222 27.18530333-116.50844445 46.60337777-170.87905224 15.53445888-46.60337778 66.02145223-77.67229667 120.39205888-66.02145223h3.88361445c11.65084445 0 19.41807445 3.88361443 31.06891889 7.76723002 7.76723001 0 11.65084445 3.88361443 15.53445888 3.88361443h3.88361557c11.65084445 3.88361443 19.41807445 3.88361443 31.06891776 7.76723 7.76723001 0 15.53445888 3.88361443 19.41807445 7.76723002 11.65084445 3.88361443 19.41807445 7.76723001 31.06891891 7.76722886 7.76723001 3.88361443 15.53445888 3.88361443 23.30168888 7.76723002 11.65084445 3.88361443 19.41807445 7.76723001 31.06891776 11.65084444 7.76723001 3.88361443 15.53445888 3.88361443 19.41807445 7.76723001 11.65084445 0 23.30168889 3.88361443 34.95253334 11.65084444l3.88361444 3.88361444c3.88361443 3.88361443 11.65084445 3.88361443 15.53446001 7.76723001 11.65084445 3.88361443 23.30168889 11.65084445 34.95253333 15.53445888l3.88361445 3.88361443c3.88361443 0 7.76723001 3.88361443 11.65084443 3.88361557 15.53445888 7.76723001 31.0689189 15.53445888 50.48699222 27.18530333 23.30168889 11.65084445 50.48699221 27.18530333 77.67229668 46.60337778h7.76723001c23.30168889 15.53445888 46.60337778 34.95253333 69.90506666 50.48699222l7.76722888 7.76723c46.60337778 38.83614777 93.20675555 81.55591111 132.04290446 128.15928889 34.95253333 38.83614777 34.95253333 93.20675555 0 132.04290332-85.43952555 97.09036999-186.41351111 178.6462811-299.03834112 240.78411891-112.62483001 62.13783666-236.90050333 108.74121443-365.05979222 128.15928888-3.88361443 0-11.65084445 3.88361443-19.41807445 3.88361443z"></path></symbol><symbol id="ICP" viewBox="0 0 1024 1024"><path d="M90.29333333 381.12c7.57333333 4.48 13.97333333 10.77333333 21.12 16.10666667 10.13333333 7.57333333 20.37333333 14.93333333 30.29333333 22.29333333 15.25333333-33.6 29.76-65.70666667 45.01333333-99.09333333-23.57333333-4.16-47.68-8.74666667-72-12.26666667-3.2-0.42666667-8.74666667 3.94666667-10.56 7.46666667-7.36 14.18666667-13.65333333 28.8-20.26666667 43.30666666-4.16 9.17333333-3.30666667 16.42666667 6.40000001 22.18666667zM214.88 277.12c28.16-24.32 55.14666667-47.57333333 83.09333333-71.78666667-20.05333333-13.86666667-40.32-28.26666667-61.22666667-41.81333333-2.77333333-1.81333333-10.02666667-0.53333333-13.01333333 1.92-13.97333333 11.41333333-27.52 23.57333333-40.64 36.05333333-2.24 2.13333333-3.41333333 7.78666667-2.13333334 10.45333334 10.88 21.76 22.4 43.2 33.92000001 65.17333333zM347.89333332 181.22666667c30.82666667-8.96 61.65333333-18.02666667 92.58666668-26.77333334 7.89333333-2.24 6.82666667-5.86666667 3.62666666-11.30666666-10.66666667-18.24-20.58666667-36.90666667-31.99999999-54.61333334-2.34666667-3.73333333-10.13333333-7.04-14.4-6.08-16.64 3.73333333-32.96 8.96-49.17333334 14.29333334-2.98666667 0.96-6.72 5.44-6.82666666 8.32-0.53333333 24.96-0.32 50.02666667-0.32000001 75.09333333 5.01333333 0.85333333 5.86666667 1.28 6.50666666 1.06666667zM131.03999999 473.06666667c-3.09333333-0.64-4.37333333-1.28-5.43999999-0.96-20.8 5.33333333-41.6 10.56-62.18666667 16.74666666-3.09333333 0.96-6.50666667 7.04-6.61333333 10.77333334-0.32 18.45333333 0 36.90666667 1.27999999 55.25333333 0.32 3.84 5.01333333 9.6 8.64 10.56 21.01333333 5.54666667 42.45333333 9.92 64.21333333 14.82666667V473.06666667zM610.93333332 152.10666667c-1.06666667-14.72-1.38666667-29.54666667-3.84-43.94666667-5.33333333-32 2.66666667-27.2-30.82666665-32.85333333-3.94666667-0.64-7.89333333-1.38666667-11.84-2.02666667-28.16-4.26666667-28.37333333-4.26666667-39.89333335 21.33333333-7.78666667 17.28-14.61333333 34.88-21.75999999 51.94666667 36.58666667 5.22666667 71.68 10.13333333 108.26666666 15.36-0.10666667-2.98666667 0.10666667-6.50666667-0.10666667-9.81333333zM777.22666666 172.8c0.85333333-2.56-2.02666667-7.78666667-4.69333333-9.70666667-14.29333333-10.45333333-28.8-20.58666667-43.73333333-29.86666666-3.2-1.92-10.24-1.92-12.90666667 0.32-19.2 16.42666667-37.65333333 33.6-56.10666666 50.24 31.14666667 21.22666667 60.69333333 41.49333333 91.30666666 62.4 8.85333333-24.21333333 17.92-48.64 26.13333333-73.38666667zM523.67999999 886.18666667c8.64 18.56 17.28 37.86666667 26.88 56.53333333 1.6 3.09333333 8 5.97333333 11.62666667 5.44 19.09333333-3.09333333 38.18666667-6.72 56.96000001-11.52 3.84-0.96 8.32-7.46666667 8.85333333-11.94666667 1.70666667-13.44 1.81333333-27.09333333 2.34666666-40.74666666 0.21333333-6.93333333 0-13.86666667 0-20.48-36.48 7.78666667-70.72 15.04-106.66666667 22.72zM785.33333333 818.02666667c-5.97333333-14.4-11.94666667-28.8-17.81333334-42.98666667-30.50666667 23.36-59.41333333 45.54666667-89.06666666 68.26666667 17.49333333 14.61333333 33.70666667 28.69333333 50.77333333 41.81333333 2.77333333 2.13333333 10.24 1.38666667 13.76000001-0.85333333 11.73333333-7.25333333 22.82666667-15.57333333 33.81333333-23.89333334 19.30666667-14.4 19.2-14.50666667 10.24-36.58666666-0.74666667-1.70666667-0.96-3.84-1.70666667-5.76zM563.25333333 765.01333333c-60.69333333-1.92-117.22666667-19.09333333-165.22666667-56.53333333-76.48-59.73333333-104.42666667-141.44-90.77333333-235.2 11.84-81.81333333 60.8-141.12 133.97333333-176.96 58.66666667-28.8 121.81333333-34.34666667 184.21333333-10.56 48.64 18.56 75.2 56.64 55.89333334 113.6-12.26666667 36.05333333-37.97333333 61.33333333-69.01333333 81.49333333-36.48 23.78666667-75.52 40-120.21333334 36.90666667-43.52-3.09333333-63.36-35.30666667-46.71999999-75.73333333 3.2-7.78666667 7.89333333-14.93333333 11.94666665-22.29333334-22.50666667 20.8-40.85333333 44.8-46.93333333 76.05333334-5.01333333 26.34666667 9.92 53.33333333 34.34666668 62.61333333 23.36 8.96 47.57333333 12.26666667 72.31999999 9.28 80.21333333-9.70666667 149.54666667-42.66666667 207.57333334-98.98666667 64.10666667-62.18666667 62.82666667-162.34666667-4.48-218.34666666-58.66666667-48.74666667-126.72-76.37333333-203.52-78.29333334-86.82666667-2.24-166.61333333 19.73333333-235.41333333 74.88-68.26666667 54.93333333-111.46666667 125.65333333-126.50666667 212.05333334-10.56 60.58666667-4.90666667 120.32 16.96 178.45333333 27.73333333 73.70666667 72.53333333 133.33333333 139.62666667 175.25333333 93.01333333 58.13333333 192.74666667 69.22666667 296.74666666 38.72 92.8-27.2 157.12-89.92 203.62666666-172.90666666 1.49333333-2.66666667 1.92-5.97333333 2.88-8.96-14.08 9.70666667-25.49333333 21.22666667-38.29333333 30.72-63.25333333 46.72-134.82666667 67.2-213.01333333 64.74666666zM462.77333333 883.09333333c-15.46666667-1.81333333-30.93333333-4.26666667-46.08-7.68-16.21333333-3.62666667-32.10666667-8.74666667-50.45333334-13.76 0 22.82666667-0.21333333 43.84 0.32000001 64.85333334 0.10666667 2.77333333 3.73333333 7.25333333 6.61333333 8 19.30666667 5.12 38.72 9.70666667 58.23999999 13.54666666 3.2 0.64 9.06666667-1.70666667 10.66666667-4.48 9.6-16.10666667 18.24-32.64 27.20000001-49.06666666 3.84-7.14666667 2.34666667-10.34666667-6.50666667-11.41333334zM199.41333333 829.44c-1.17333333 2.66666667 0.74666667 8.42666667 3.09333334 10.45333333 15.25333333 13.01333333 31.04 25.6 46.93333333 37.86666667 2.45333333 1.92 7.78666667 3.2 9.70666667 1.81333333 18.45333333-13.22666667 36.37333333-26.98666667 54.39999999-40.53333333-29.33333333-23.78666667-56.96-46.18666667-86.61333333-70.18666667-9.28 20.16-18.77333333 40.21333333-27.52 60.58666667zM93.17333333 675.52c-2.24 2.02666667-2.98666667 8.53333333-1.60000001 11.52 8.10666667 17.17333333 16.85333333 34.13333333 26.13333334 50.77333333 1.70666667 3.09333333 7.04 6.72 10.02666667 6.18666667 22.08-3.94666667 44.05333333-8.85333333 65.17333334-13.22666667L143.73333333 632.74666667c-16.96 14.18666667-34.02666667 28.16-50.56 42.77333333z" fill="#ED4201"></path><path d="M975.94666666 338.34666667c-15.46666667-35.94666667-46.61333333-52.05333333-80.42666666-62.61333334-21.22666667-6.61333333-43.30666667-9.49333333-65.60000001-10.13333333-10.98666667-0.32-21.97333333-0.21333333-33.06666666 0.32-9.81333333 0.42666667-19.84 1.49333333-29.76 3.94666667 5.33333333 1.28 42.98666667 11.73333333 59.41333334 20.26666666 1.17333333 0.64 2.24 1.17333333 3.41333332 1.81333334 21.65333333 12.26666667 34.98666667 30.82666667 35.84000001 57.28 1.06666667 33.92-13.97333333 61.76-33.81333334 87.46666666-0.64 0.85333333-1.38666667 1.70666667-2.02666667 2.45333334-19.73333333 24.96-43.2 45.97333333-68.90666666 64.74666666-49.38666667 35.94666667-103.68 61.76-162.34666667 77.22666667-44.48 11.73333333-89.81333333 15.14666667-135.57333334 5.33333333-48.32-10.34666667-81.6-52.69333333-61.97333332-104.53333333 3.30666667-8.74666667 6.61333333-17.6 9.92-26.34666667-16.32 20.90666667-28.58666667 42.88-31.57333333 69.86666667-3.84 35.73333333 11.09333333 62.50666667 38.18666666 82.45333333 33.81333333 24.96 74.34666667 31.14666667 114.88 32.53333334 26.24 0.85333333 52.8-3.62666667 79.04-6.29333334 45.65333333-4.69333333 89.06666667-18.13333333 131.2-35.30666666 30.08-12.26666667 59.41333333-26.13333333 87.14666666-42.66666667 17.70666667-10.56 34.66666667-22.18666667 50.88-35.30666667 36.26666667-29.54666667 70.72-61.01333333 89.70666668-105.17333333 10.77333333-24.96 17.06666667-50.34666667 5.43999999-77.33333333z" fill="#035DB6"></path></symbol><symbol id="touxiang" viewBox="0 0 1024 1024"><path d="M614.72 554.538c-49.086-6.399-100.27-2.1-149.256-2.1-119.465 0-209.04 95.972-206.84 215.437 0 17.095 8.498 31.99 23.493 40.488 14.896 10.697 34.09 14.896 53.285 17.095 61.882 6.398 123.664 6.398 198.342 6.398 40.488 0 93.872-2.1 142.858-4.298 27.692 0 53.284-4.3 78.877-14.896 19.194-8.498 29.89-19.194 31.99-40.488 8.498-104.57-72.478-204.84-172.75-217.636zM680.8 375.39c0-87.474-74.678-162.053-164.251-162.053-89.574 0-162.053 74.679-162.053 162.053-2.1 87.474 74.678 164.252 162.053 164.252 89.673 0 164.252-74.678 164.252-164.252z" fill="#FFFFFF"></path><path d="M512.35 0C228.733 0 0.5 228.233 0.5 511.85s228.233 511.85 511.85 511.85 511.85-228.233 511.85-511.85S795.967 0 512.35 0z m275.12 772.074c-2.1 21.294-12.797 31.99-31.991 40.488-25.593 10.697-51.185 14.896-78.877 14.896-49.086 2.099-102.37 4.298-142.858 4.298-74.678 0-136.46 0-198.342-6.398-19.195-2.1-38.389-6.398-53.285-17.095-14.895-8.497-23.493-23.493-23.493-40.488-2.1-119.465 87.475-215.437 206.84-215.437 49.085 0 100.27-4.299 149.256 2.1 100.27 12.896 181.247 113.166 172.75 217.636zM354.495 375.39c0-87.474 72.479-162.053 162.053-162.053S680.8 288.016 680.8 375.39c0 89.574-74.679 164.252-164.252 164.252-87.375 0-164.152-76.778-162.053-164.252z" fill="#249FF8"></path></symbol><symbol id="shijian" viewBox="0 0 1024 1024"><path d="M512 512m-512 0a512 512 0 1 0 1024 0 512 512 0 1 0-1024 0Z" fill="#409EFF"></path><path d="M654.222222 256c-17.066667 0-28.444444 11.377778-28.444444 28.444444v56.888889c0 17.066667 11.377778 28.444444 28.444444 28.444445s28.444444-11.377778 28.444445-28.444445v-56.888889c0-17.066667-11.377778-28.444444-28.444445-28.444444zM369.777778 256c-17.066667 0-28.444444 11.377778-28.444445 28.444444v56.888889c0 17.066667 11.377778 28.444444 28.444445 28.444445s28.444444-11.377778 28.444444-28.444445v-56.888889c0-17.066667-11.377778-28.444444-28.444444-28.444444z" fill="#FFFFFF"></path><path d="M725.333333 312.888889H711.111111v28.444444c0 31.288889-25.6 56.888889-56.888889 56.888889s-56.888889-25.6-56.888889-56.888889v-28.444444h-170.666666v28.444444c0 31.288889-25.6 56.888889-56.888889 56.888889s-56.888889-25.6-56.888889-56.888889v-28.444444h-14.222222c-22.755556 0-42.666667 19.911111-42.666667 42.666667v341.333333c0 22.755556 19.911111 42.666667 42.666667 42.666667h426.666666c22.755556 0 42.666667-19.911111 42.666667-42.666667v-341.333333c0-22.755556-19.911111-42.666667-42.666667-42.666667zM426.666667 654.222222h-56.888889c-17.066667 0-28.444444-11.377778-28.444445-28.444444s11.377778-28.444444 28.444445-28.444445h56.888889c17.066667 0 28.444444 11.377778 28.444444 28.444445s-11.377778 28.444444-28.444444 28.444444z m227.555555 0h-56.888889c-17.066667 0-28.444444-11.377778-28.444444-28.444444s11.377778-28.444444 28.444444-28.444445h56.888889c17.066667 0 28.444444 11.377778 28.444445 28.444445s-11.377778 28.444444-28.444445 28.444444z m0-113.777778h-56.888889c-17.066667 0-28.444444-11.377778-28.444444-28.444444s11.377778-28.444444 28.444444-28.444444h56.888889c17.066667 0 28.444444 11.377778 28.444445 28.444444s-11.377778 28.444444-28.444445 28.444444z" fill="#FFFFFF"></path></symbol><symbol id="ziyuan" viewBox="0 0 1024 1024"><path d="M511.854421 0a511.854421 511.854421 0 1 0 512.145579 511.854421A511.854421 511.854421 0 0 0 511.854421 0z" fill="#39B54A"></path><path d="M576.491328 630.355417l-116.462895 116.462894a129.56497 129.56497 0 0 1-182.555587 0l-2.0381-2.038101a128.982656 128.982656 0 0 1 0-182.26443l81.232868-81.232868a179.644015 179.644015 0 0 0 13.102076 70.460051l-52.69946 52.408302a69.877737 69.877737 0 0 0 0 98.702303l2.038101 2.038101a70.168894 70.168894 0 0 0 98.702303 0l116.462895-116.462894a69.877737 69.877737 0 0 0 0-98.702304l-2.038101-2.0381a69.586579 69.586579 0 0 0-13.975547-10.772818l42.508956-42.508956a128.109184 128.109184 0 0 1 13.102076 11.355132l2.0381 2.0381a129.273813 129.273813 0 0 1 0 182.26443z" fill="#FFFFFF"></path><path d="M746.235997 460.901905l-81.232869 81.232869a179.352858 179.352858 0 0 0-13.102076-70.460051l52.69946-52.408303a69.877737 69.877737 0 0 0 0-98.702303l-2.038101-2.038101a69.877737 69.877737 0 0 0-98.702303 0l-116.462894 116.462895a69.877737 69.877737 0 0 0 0 98.702303l2.0381 2.038101a68.421951 68.421951 0 0 0 13.975548 10.772817l-42.508957 42.508957a136.552744 136.552744 0 0 1-13.102076-11.355132l-2.0381-2.038101a128.982656 128.982656 0 0 1 0-182.26443l116.462894-116.462894a129.56497 129.56497 0 0 1 182.555587 0l2.038101 2.0381a128.982656 128.982656 0 0 1 0 182.26443z" fill="#FFFFFF"></path></symbol><symbol id="prev" viewBox="0 0 1024 1024"><path d="M935.3 177.4c-8.6-56.3-63.8-91.5-116.3-73.6C611 175 424.6 276.4 259.5 408c-2.4-77.4-7.6-154.8-15.5-232.2 0-46.7-36.7-84.5-81.9-84.5s-81.9 37.9-81.9 84.5c-20.5 225-20.5 450.1 0 675.1 0 46.7 36.7 84.5 81.9 84.5s81.9-37.9 81.9-84.5c7.8-76.5 12.9-153.1 15.4-229.6 161.2 132 348 232.7 560.4 301.9 52.3 17 106.7-18.1 115.3-73.9 34.2-224 34.3-447.9 0.2-671.9z"></path></symbol><symbol id="huo" viewBox="0 0 1024 1024"><path d="M14.656 512a497.344 497.344 0 1 0 994.688 0 497.344 497.344 0 1 0-994.688 0z" fill="#ff0000"></path><path d="M374.976 872.64c-48.299-100.032-22.592-157.44 14.421-211.37 40.448-58.966 51.115-117.611 51.115-117.611s31.659 41.386 19.115 106.005c56.149-62.72 66.816-162.133 58.325-200.405 127.317 88.746 181.59 281.002 108.181 423.381C1016 652.501 723.093 323.2 672.277 285.867c16.939 37.333 20.054 100.032-14.101 130.474-58.027-219.84-201.664-265.002-201.664-265.002 16.96 113.536-61.781 237.397-137.344 330.24-2.816-45.163-5.632-76.544-29.483-119.808-5.333 82.176-68.373 149.269-85.29 231.445-22.912 111.637 17.237 193.173 170.581 279.424z" fill="#FFFFFF"></path></symbol><symbol id="fenxiang1" viewBox="0 0 1024 1024"><path d="M512 512m-512 0a512 512 0 1 0 1024 0 512 512 0 1 0-1024 0Z" fill="#F3B243"></path><path d="M630.784 323.584m-90.112 0a90.112 90.112 0 1 0 180.224 0 90.112 90.112 0 1 0-180.224 0Z" fill="#FFFFFF"></path><path d="M630.784 688.128m-90.112 0a90.112 90.112 0 1 0 180.224 0 90.112 90.112 0 1 0-180.224 0Z" fill="#FFFFFF"></path><path d="M319.488 512m-90.112 0a90.112 90.112 0 1 0 180.224 0 90.112 90.112 0 1 0-180.224 0Z" fill="#FFFFFF"></path><path d="M341.037056 480.370688l257.343488-175.7184 27.713536 40.59136-257.339392 175.7184z" fill="#FFFFFF"></path><path d="M349.052928 488.452096l252.854272 182.10816-28.725248 39.886848-252.874752-182.10816z" fill="#FFFFFF"></path></symbol><symbol id="menu" viewBox="0 0 1024 1024"><path d="M896 554.666667H128c-25.6 0-42.666667-17.066667-42.666667-42.666667s17.066667-42.666667 42.666667-42.666667h768c25.6 0 42.666667 17.066667 42.666667 42.666667s-17.066667 42.666667-42.666667 42.666667zM896 298.666667H128c-25.6 0-42.666667-17.066667-42.666667-42.666667s17.066667-42.666667 42.666667-42.666667h768c25.6 0 42.666667 17.066667 42.666667 42.666667s-17.066667 42.666667-42.666667 42.666667zM896 810.666667H128c-25.6 0-42.666667-17.066667-42.666667-42.666667s17.066667-42.666667 42.666667-42.666667h768c25.6 0 42.666667 17.066667 42.666667 42.666667s-17.066667 42.666667-42.666667 42.666667z"></path></symbol><symbol id="moon" viewBox="0 0 1024 1024"><path d="M516.266667 938.666667h-38.4c-234.666667-21.333333-405.333333-230.4-384-465.066667 17.066667-204.8 179.2-366.933333 384-384 17.066667 0 34.133333 8.533333 42.666666 21.333333 8.533333 12.8 8.533333 34.133333-4.266666 46.933334-85.333333 115.2-59.733333 273.066667 55.466666 358.4 89.6 68.266667 213.333333 68.266667 302.933334 0 12.8-8.533333 29.866667-12.8 46.933333-4.266667 12.8 8.533333 21.333333 25.6 21.333333 42.666667-8.533333 115.2-64 217.6-153.6 290.133333-81.066667 59.733333-174.933333 93.866667-273.066666 93.866667zM396.8 187.733333c-123.733333 42.666667-213.333333 153.6-221.866667 290.133334-17.066667 187.733333 119.466667 354.133333 307.2 371.2 89.6 8.533333 179.2-17.066667 247.466667-76.8 46.933333-38.4 81.066667-89.6 102.4-145.066667-106.666667 38.4-226.133333 21.333333-320-46.933333-119.466667-93.866667-166.4-251.733333-115.2-392.533334z"></path></symbol><symbol id="music" viewBox="0 0 1024 1024"><path d="M384 810.666667c-25.6 0-42.666667-17.066667-42.666667-42.666667V213.333333c0-21.333333 17.066667-38.4 34.133334-42.666666l512-85.333334c12.8 0 25.6 0 34.133333 8.533334 12.8 8.533333 17.066667 21.333333 17.066667 34.133333v554.666667c0 25.6-17.066667 42.666667-42.666667 42.666666s-42.666667-17.066667-42.666667-42.666666V179.2L426.666667 247.466667V768c0 25.6-17.066667 42.666667-42.666667 42.666667z"></path><path d="M256 938.666667c-93.866667 0-170.666667-76.8-170.666667-170.666667s76.8-170.666667 170.666667-170.666667 170.666667 76.8 170.666667 170.666667-76.8 170.666667-170.666667 170.666667z m0-256c-46.933333 0-85.333333 38.4-85.333333 85.333333s38.4 85.333333 85.333333 85.333333 85.333333-38.4 85.333333-85.333333-38.4-85.333333-85.333333-85.333333zM768 853.333333c-93.866667 0-170.666667-76.8-170.666667-170.666666s76.8-170.666667 170.666667-170.666667 170.666667 76.8 170.666667 170.666667-76.8 170.666667-170.666667 170.666666z m0-256c-46.933333 0-85.333333 38.4-85.333333 85.333334s38.4 85.333333 85.333333 85.333333 85.333333-38.4 85.333333-85.333333-38.4-85.333333-85.333333-85.333334z"></path></symbol><symbol id="search" viewBox="0 0 1024 1024"><path d="M469.333333 853.333333c-213.333333 0-384-170.666667-384-384s170.666667-384 384-384 384 170.666667 384 384-170.666667 384-384 384z m0-682.666666c-166.4 0-298.666667 132.266667-298.666666 298.666666s132.266667 298.666667 298.666666 298.666667 298.666667-132.266667 298.666667-298.666667-132.266667-298.666667-298.666667-298.666666z"></path><path d="M896 938.666667c-12.8 0-21.333333-4.266667-29.866667-12.8L682.666667 742.4c-17.066667-17.066667-17.066667-42.666667 0-59.733333s42.666667-17.066667 59.733333 0l183.466667 183.466666c17.066667 17.066667 17.066667 42.666667 0 59.733334-8.533333 8.533333-17.066667 12.8-29.866667 12.8z"></path></symbol><symbol id="sun" viewBox="0 0 1024 1024"><path d="M512 768c-140.8 0-256-115.2-256-256s115.2-256 256-256 256 115.2 256 256-115.2 256-256 256z m0-426.666667c-93.866667 0-170.666667 76.8-170.666667 170.666667s76.8 170.666667 170.666667 170.666667 170.666667-76.8 170.666667-170.666667-76.8-170.666667-170.666667-170.666667zM512 170.666667c-25.6 0-42.666667-17.066667-42.666667-42.666667V42.666667c0-25.6 17.066667-42.666667 42.666667-42.666667s42.666667 17.066667 42.666667 42.666667v85.333333c0 25.6-17.066667 42.666667-42.666667 42.666667zM512 1024c-25.6 0-42.666667-17.066667-42.666667-42.666667v-85.333333c0-25.6 17.066667-42.666667 42.666667-42.666667s42.666667 17.066667 42.666667 42.666667v85.333333c0 25.6-17.066667 42.666667-42.666667 42.666667zM238.933333 281.6c-12.8 0-21.333333-4.266667-29.866666-12.8L149.333333 209.066667c-17.066667-17.066667-17.066667-42.666667 0-59.733334s42.666667-17.066667 59.733334 0l59.733333 59.733334c17.066667 17.066667 17.066667 42.666667 0 59.733333-4.266667 8.533333-17.066667 12.8-29.866667 12.8zM844.8 887.466667c-12.8 0-21.333333-4.266667-29.866667-12.8l-59.733333-59.733334c-17.066667-17.066667-17.066667-42.666667 0-59.733333s42.666667-17.066667 59.733333 0l59.733334 59.733333c17.066667 17.066667 17.066667 42.666667 0 59.733334-8.533333 8.533333-21.333333 12.8-29.866667 12.8zM128 554.666667H42.666667c-25.6 0-42.666667-17.066667-42.666667-42.666667s17.066667-42.666667 42.666667-42.666667h85.333333c25.6 0 42.666667 17.066667 42.666667 42.666667s-17.066667 42.666667-42.666667 42.666667zM981.333333 554.666667h-85.333333c-25.6 0-42.666667-17.066667-42.666667-42.666667s17.066667-42.666667 42.666667-42.666667h85.333333c25.6 0 42.666667 17.066667 42.666667 42.666667s-17.066667 42.666667-42.666667 42.666667zM179.2 887.466667c-12.8 0-21.333333-4.266667-29.866667-12.8-17.066667-17.066667-17.066667-42.666667 0-59.733334l59.733334-59.733333c17.066667-17.066667 42.666667-17.066667 59.733333 0s17.066667 42.666667 0 59.733333l-59.733333 59.733334c-8.533333 8.533333-17.066667 12.8-29.866667 12.8zM785.066667 281.6c-12.8 0-21.333333-4.266667-29.866667-12.8-17.066667-17.066667-17.066667-42.666667 0-59.733333l59.733333-59.733334c17.066667-17.066667 42.666667-17.066667 59.733334 0s17.066667 42.666667 0 59.733334l-59.733334 59.733333c-8.533333 8.533333-21.333333 12.8-29.866666 12.8z"></path></symbol></svg>